<?xml version="1.0" encoding="UTF-8"?>
<svg id="_レイヤー_2" data-name="レイヤー 2" xmlns="http://www.w3.org/2000/svg" xmlns:xlink="http://www.w3.org/1999/xlink" viewBox="0 0 347.85 146.85">
  <defs>
    <style>
      .cls-1 {
        fill: #fff;
      }

      .cls-2 {
        fill: #d1d0ca;
      }

      .cls-3 {
        fill: url(#_名称未設定グラデーション_2);
      }
    </style>
    <linearGradient id="_名称未設定グラデーション_2" data-name="名称未設定グラデーション 2" x1="-564" y1="102.6" x2="-418.8" y2="102.6" gradientTransform="translate(564 177.03) scale(1 -1)" gradientUnits="userSpaceOnUse">
      <stop offset="0" stop-color="#9fd7ff"/>
      <stop offset="1" stop-color="#ecd9ff"/>
    </linearGradient>
  </defs>
  <g id="_レイヤー_1-2" data-name="レイヤー 1">
    <circle class="cls-2" cx="275.43" cy="72.43" r="72.43"/>
    <path class="cls-1" d="M264.36,87.54h-20.36v-4.63h6.86v-18.34h-6.86v-4.25c2.72-.03,4.64-.4,5.75-1.11,1.13-.73,1.79-1.87,1.98-3.43h5.92v27.13h6.71v4.63Z"/>
    <path class="cls-1" d="M301.82,73.81h-23.78v16.19h-6.26V54h36.23v31.1c0,1.32-.56,2.38-1.68,3.2-1.12,.83-2.44,1.24-3.97,1.24h-6.75l-.68-5.53h5.52c.92,0,1.38-.39,1.38-1.16v-9.04Zm-9.09-4.9h9.09v-9.95h-9.09v9.95Zm-14.7,0h8.52v-9.95h-8.52v9.95Z"/>
    <path d="M184.42,71.03h-20.85v-2.6h20.85v2.6Zm0,7.38h-20.85v-2.6h20.85v2.6Z"/>
    <circle class="cls-3" cx="72.43" cy="74.43" r="72.43"/>
    <path class="cls-1" d="M56.43,93h-22.48v-5.16h7.57v-20.44h-7.57v-4.73c3-.03,5.12-.45,6.35-1.24,1.25-.81,1.98-2.09,2.18-3.82h6.54v30.23h7.41v5.16Zm20.3,.75c-4.8,0-8.32-1.45-10.57-4.36-2.23-2.92-3.35-7.6-3.35-14.04s1.12-11.03,3.38-13.97c2.25-2.94,5.77-4.41,10.55-4.41s8.3,1.47,10.55,4.41c2.25,2.92,3.38,7.57,3.38,13.95s-1.12,11.18-3.35,14.09c-2.23,2.89-5.76,4.34-10.57,4.34Zm0-31.31c-2.19,0-3.76,1.03-4.71,3.09-.94,2.05-1.41,5.33-1.41,9.84s.48,7.78,1.45,9.84c.97,2.06,2.52,3.09,4.66,3.09s3.7-1.05,4.66-3.14c.97-2.09,1.45-5.38,1.45-9.84s-.48-7.77-1.43-9.82c-.94-2.05-2.5-3.07-4.69-3.07Zm24.2,22.55v8.02h-5.16v-23.55h8.91c3.05,0,5.37,.62,6.95,1.88,1.58,1.24,2.38,3.06,2.38,5.45s-.88,4.49-2.62,5.98c-1.75,1.48-4.03,2.22-6.84,2.22h-3.61Zm-.03-11.83v8.09h1.38c2.58,0,4.29-.35,5.12-1.06,.84-.72,1.26-1.82,1.26-3.3,0-1.22-.41-2.15-1.22-2.78-.8-.64-2.4-.95-4.78-.95h-1.76Z"/>
  </g>
</svg>