<?xml version="1.0" encoding="utf-8"?>
<!-- Generator: Adobe Illustrator 26.2.1, SVG Export Plug-In . SVG Version: 6.00 Build 0)  -->
<svg version="1.1" id="レイヤー_1" xmlns="http://www.w3.org/2000/svg" xmlns:xlink="http://www.w3.org/1999/xlink" x="0px"
	 y="0px" viewBox="0 0 172.7 172.7" style="enable-background:new 0 0 172.7 172.7;" xml:space="preserve">
<style type="text/css">
	.st0{fill:#FFC826;}
	.st1{fill:#FFD912;}
	.st2{fill:#FEBF12;}
	.st3{fill:#FFCD00;}
	.st4{fill:#FFDD52;}
	.st5{fill:#FFFFFF;}
</style>
<g id="a">
</g>
<g id="b">
	<g id="c">
		<g>
			<path class="st0" d="M30,0h112.7c16.6,0,30,13.4,30,30v112.7c0,16.6-13.4,30-30,30H30c-16.6,0-30-13.4-30-30V30
				C0,13.4,13.4,0,30,0z"/>
			<g>
				<g>
					<circle class="st1" cx="84" cy="69.9" r="47.9"/>
					<g>
						<path class="st2" d="M106.3,36.1c4.2,6.4,6.7,14,6.7,22.3c0,22.4-18.1,40.5-40.5,40.5c-8.2,0-15.9-2.4-22.3-6.7
							c7.2,11,19.7,18.2,33.8,18.2c22.4,0,40.5-18.1,40.5-40.5C124.5,55.8,117.3,43.4,106.3,36.1z"/>
						<path class="st3" d="M113,58.4c0-8.2-2.4-15.9-6.7-22.3c-6.4-4.2-14-6.7-22.3-6.7c-22.4,0-40.5,18.1-40.5,40.5
							c0,8.2,2.5,15.9,6.7,22.3c6.4,4.2,14,6.7,22.3,6.7C94.8,98.9,113,80.7,113,58.4z"/>
					</g>
					<path class="st4" d="M87.9,38.9c8.7,0,16.6,3.2,22.7,8.4C104.2,39.8,94.7,35,84,35c-19.3,0-34.9,15.6-34.9,34.9
						c0,10.6,4.8,20.1,12.2,26.6c-5.2-6.1-8.4-14-8.4-22.7C53,54.6,68.6,38.9,87.9,38.9L87.9,38.9z"/>
				</g>
				<path class="st5" d="M72.8,49.9h13.2c8.9,0,15.7,3.1,15.7,12.6s-6.9,13.3-15.5,13.3h-5.4V90h-8V49.9z M85.6,69.4
					c5.5,0,8.2-2.3,8.2-6.9s-2.9-6.2-8.4-6.2h-4.6v13.2H85.6z"/>
			</g>
			<g>
				<g>
					<polygon class="st5" points="32.4,151.6 36.6,151.6 41.5,138.2 37.3,138.2 					"/>
					<polygon class="st5" points="47.9,138.2 52.8,151.6 57.1,151.6 52.2,138.2 					"/>
					<polygon class="st5" points="61.8,147.2 67.2,147.2 73,140.8 73,152.5 77,152.5 77,136.3 84.8,127.6 79.3,127.6 					"/>
					<path class="st5" d="M107.9,126.9h-3.9v3H90v3.8h14.1v2.4H90v3.8h14.1v2.4H90.5v10.6h17.4V148h5.8v-3.8h-5.8v-4.4h6v-3.8h-6
						v-2.4h6v-3.8h-6V126.9z M104.1,149.1h-9.6v-3.1h9.6V149.1z"/>
					<path class="st5" d="M142.3,137.1H131l7.2-5.1v-3.3h-18v3.8h10.5l-6.5,4.5h-4v3.8h18.4v8.2h-8v-5.4h-10.4v9.2h22.1V137.1z
						 M127.2,147.4v1.7h-3.5v-1.7H127.2z"/>
				</g>
				<g>
					<g>
						<path class="st5" d="M90.8,157.7h2.8c1.1,0,2,0.2,2.7,0.7c0.6,0.4,0.9,1.1,0.9,1.9c0,0.5-0.2,0.9-0.5,1.3
							c-0.3,0.4-0.7,0.7-1.3,0.9c-0.5,0.2-1.1,0.3-1.8,0.3h-0.5v2.6h-2.4V157.7z M94.6,161c0.2-0.2,0.3-0.4,0.3-0.7
							s-0.1-0.5-0.3-0.7c-0.2-0.2-0.5-0.2-0.9-0.2h-0.5v1.9c0.1,0,0.3,0,0.5,0C94.1,161.2,94.4,161.1,94.6,161z"/>
						<path class="st5" d="M99.4,165.1c-0.5-0.2-0.9-0.6-1.1-1c-0.3-0.4-0.4-0.9-0.4-1.5c0-0.6,0.1-1.1,0.4-1.5
							c0.3-0.4,0.7-0.8,1.1-1c0.5-0.2,1-0.4,1.7-0.4c0.6,0,1.2,0.1,1.7,0.4c0.5,0.2,0.9,0.6,1.1,1c0.3,0.4,0.4,0.9,0.4,1.5
							c0,0.6-0.1,1.1-0.4,1.5c-0.3,0.4-0.7,0.8-1.1,1c-0.5,0.2-1,0.4-1.7,0.4C100.4,165.5,99.9,165.4,99.4,165.1z M101.8,163.5
							c0.2-0.2,0.3-0.5,0.3-0.9c0-0.4-0.1-0.6-0.3-0.9c-0.2-0.2-0.4-0.3-0.8-0.3c-0.3,0-0.6,0.1-0.8,0.3c-0.2,0.2-0.3,0.5-0.3,0.9
							c0,0.4,0.1,0.6,0.3,0.9c0.2,0.2,0.4,0.3,0.8,0.3C101.4,163.8,101.6,163.7,101.8,163.5z"/>
						<path class="st5" d="M105.7,158.6c-0.2-0.2-0.4-0.5-0.4-0.8c0-0.3,0.1-0.6,0.4-0.8c0.3-0.2,0.5-0.3,0.9-0.3
							c0.3,0,0.6,0.1,0.9,0.3c0.2,0.2,0.4,0.5,0.4,0.8c0,0.3-0.1,0.6-0.4,0.8c-0.3,0.2-0.5,0.3-0.9,0.3
							C106.2,159,105.9,158.9,105.7,158.6z M105.9,164.9c-0.3-0.4-0.5-0.9-0.5-1.6v-3.4h2.4v3.3c0,0.2,0,0.3,0.1,0.4
							c0.1,0.1,0.2,0.1,0.4,0.1c0.1,0,0.3,0,0.5-0.1l0.1,1.6c-0.2,0.1-0.4,0.2-0.6,0.3s-0.5,0.1-0.8,0.1
							C106.8,165.5,106.3,165.3,105.9,164.9z"/>
						<path class="st5" d="M112.4,157.7h2.3l1.9,3.7l1.9-3.7h2.3v7.7h-2.3v-4.1l-1.4,2.7h-0.9l-1.4-2.7v4.1h-2.3V157.7z"/>
						<path class="st5" d="M123.5,165.1c-0.4-0.3-0.8-0.6-1-1c-0.3-0.4-0.4-0.9-0.4-1.5c0-0.5,0.1-1,0.4-1.5s0.6-0.8,1-1
							c0.4-0.2,0.9-0.4,1.3-0.4c0.4,0,0.7,0.1,1.1,0.3c0.3,0.2,0.6,0.5,0.8,1v-1.3h2.3v5.7h-2.3v-1c-0.4,0.8-1,1.1-1.8,1.1
							C124.4,165.5,124,165.4,123.5,165.1z M126.4,163.4c0.2-0.2,0.3-0.5,0.3-0.8v-0.1c0-0.3-0.1-0.6-0.4-0.8
							c-0.2-0.2-0.5-0.3-0.8-0.3c-0.3,0-0.6,0.1-0.8,0.3c-0.2,0.2-0.3,0.5-0.3,0.8c0,0.3,0.1,0.6,0.3,0.8c0.2,0.2,0.5,0.3,0.8,0.3
							C125.9,163.7,126.2,163.6,126.4,163.4z"/>
						<path class="st5" d="M130.5,159.9h2.4v1.1c0.2-0.4,0.4-0.8,0.7-1c0.3-0.2,0.6-0.3,1-0.3l0.3,1.8c-0.7,0-1.2,0.1-1.6,0.2
							c-0.3,0.2-0.5,0.4-0.5,0.7v2.9h-2.4V159.9z"/>
						<path class="st5" d="M137.2,165.2c-0.5-0.2-0.8-0.5-1.1-0.9c-0.3-0.4-0.4-0.8-0.4-1.3v-3.2h2.3v3.2c0,0.2,0.1,0.4,0.2,0.6
							c0.1,0.1,0.3,0.2,0.5,0.2c0.2,0,0.4-0.1,0.5-0.2c0.1-0.1,0.2-0.3,0.2-0.6v-3.2h2.3v3.2c0,0.5-0.1,0.9-0.4,1.3
							c-0.2,0.4-0.6,0.7-1,0.9c-0.4,0.2-1,0.3-1.5,0.3C138.2,165.5,137.7,165.4,137.2,165.2z"/>
					</g>
				</g>
				<g>
					<path class="st5" d="M52.9,132.1h-6.1v-4.7h-4v4.7h-9.9v3.9h9.9v16.6h4v-16.6h8.6C54.2,134.9,53.3,133.6,52.9,132.1z"/>
				</g>
				<g>
					<g>
						<circle class="st5" cx="61.1" cy="129.6" r="6.6"/>
					</g>
					<g>
						<path class="st0" d="M59,126.3h2.4c1.6,0,2.8,0.6,2.8,2.3c0,1.6-1.2,2.4-2.8,2.4h-1v2.6H59V126.3z M61.4,129.8
							c1,0,1.5-0.4,1.5-1.2c0-0.8-0.5-1.1-1.5-1.1h-0.8v2.4H61.4z"/>
					</g>
				</g>
			</g>
		</g>
	</g>
</g>
</svg>
