<?xml version="1.0" encoding="UTF-8"?><svg xmlns="http://www.w3.org/2000/svg" xmlns:xlink="http://www.w3.org/1999/xlink" viewBox="0 0 756.9 590.29"><defs><style>.f{fill:url(#d);opacity:.4;}.g{fill:#f8a3a6;}.h{fill:#fedeed;}.i{fill:none;}.j{fill:url(#e);opacity:.8;}</style><pattern id="d" x="0" y="0" width="300" height="300" patternTransform="translate(-4844.78 -1299.06) rotate(.36) scale(.03)" patternUnits="userSpaceOnUse" viewBox="0 0 300 300"><g><rect class="i" width="300" height="300"/><circle class="g" cx="60" cy="60" r="60"/></g></pattern><linearGradient id="e" x1="-5.87" y1="109.3" x2="717.07" y2="421.63" gradientTransform="matrix(1, 0, 0, 1, 0, 0)" gradientUnits="userSpaceOnUse"><stop offset="0" stop-color="#fb94cd"/><stop offset="1" stop-color="#ffe681"/></linearGradient></defs><g id="a"/><g id="b"><g id="c"><g><path class="h" d="M152.7,363.08c61.36,72.51,96.88,170.11,215.61,212.44,121.55,43.33,242.04-11.63,306.51-126.83,64.47-115.21-4.23-225.13-115.21-248.38-110.98-23.25-149.03-95.12-271.63-78.21-122.6,16.91-251.55,103.58-135.29,240.98Z"/><path class="f" d="M7.62,215.24C28,144.62,104.06,53.67,272.41,63.71c168.35,10.04,222.29,29.06,323.75,57.61,101.46,28.55,181.99,104.69,155.73,191.82-25.7,85.29-117.75,103.89-241.92,120.54s-264.54,112.67-386.89,38.9C2,399.57-12.76,285.86,7.62,215.24Z"/><path class="j" d="M219.82,398.49c-92.22-39.67-162.77-58.13-186.02-121.02-23.25-62.89-10.04-140.04,49.68-200.29C143.19,16.93,240.96-22.17,355.11,13.76c114.15,35.94,216.67,134.76,246.79,223.01,30.95,90.68,33.29,202.4-28.01,258.42-64.64,59.06-145.93,59.87-206.1,28.54-63.94-33.29-53.38-84.55-147.97-125.25Z"/></g></g></g></svg>