<?xml version="1.0" encoding="UTF-8"?><svg xmlns="http://www.w3.org/2000/svg" viewBox="0 0 223.52 52.55"><defs><style>.d{fill:#fff;}.e{fill:#54A0EC;}</style></defs><g id="a"/><g id="b"><g id="c"><g><rect class="e" y="0" width="223.52" height="52.55" rx="4" ry="4"/><g><path class="d" d="M39.73,31.41l-1.46-1c1.12-1.05,2.53-3.01,3.21-4.42l1.51,.73c-.75,1.48-2.31,3.67-3.26,4.69Zm6.99-10.42v1.56h4.27c.44,0,1.07-.03,1.51-.1v1.77c-.49-.03-1.07-.03-1.5-.03h-4.28v8.09c0,.92-.48,1.45-1.6,1.45-.8,0-1.8-.03-2.57-.12l-.15-1.68c.73,.14,1.5,.19,1.94,.19s.63-.17,.65-.63v-7.29h-4.54c-.53,0-1.07,.02-1.53,.05v-1.78c.48,.05,.99,.1,1.51,.1h4.56v-1.58c0-.41-.07-1.05-.14-1.33h2.01c-.05,.24-.14,.95-.14,1.34Zm6.39,9.43l-1.56,.88c-.7-1.39-1.95-3.48-2.82-4.54l1.46-.8c.9,1.09,2.24,3.23,2.92,4.45Zm-1.73-12.09c1.05,0,1.92,.85,1.92,1.9s-.87,1.9-1.92,1.9-1.9-.85-1.9-1.9,.85-1.9,1.9-1.9Zm0,2.92c.56,0,1.02-.46,1.02-1.02s-.46-1.02-1.02-1.02-1,.46-1,1.02,.44,1.02,1,1.02Z"/><path class="d" d="M61.83,23.42c1.77-1.09,3.57-2.67,4.73-4.05l1.43,1.36c-1.29,1.31-2.89,2.62-4.57,3.72v7.05c0,.7,.03,1.63,.12,2.01h-2.11c.05-.37,.1-1.31,.1-2.01v-5.92c-1.79,.97-4.03,1.95-6.27,2.63l-.83-1.68c2.97-.8,5.52-1.95,7.41-3.13Z"/><path class="d" d="M76.67,29.22c2.74-1.68,4.86-4.23,5.9-6.41l1.04,1.85c-1.22,2.21-3.31,4.52-5.97,6.15-1.72,1.05-3.88,2.06-6.51,2.53l-1.14-1.75c2.84-.42,5.05-1.38,6.68-2.38Zm-.58-5.44l-1.34,1.38c-.88-.9-2.99-2.75-4.25-3.6l1.24-1.33c1.19,.8,3.4,2.57,4.35,3.55Z"/><path class="d" d="M86.85,21.5c0-.54-.05-1.33-.15-1.9h2.09c-.05,.56-.12,1.31-.12,1.9v2.65c2.26,.68,5.49,1.89,7.19,2.72l-.76,1.85c-1.79-.97-4.56-2.04-6.43-2.65v5.25c0,.53,.05,1.56,.14,2.18h-2.09c.08-.6,.14-1.51,.14-2.18v-9.83Z"/><path class="d" d="M104.28,21.2c1.67-.07,3.45-.22,5-.49v1.58c-1.67,.24-3.76,.39-5.59,.44-.37,.8-.83,1.6-1.31,2.24,.56-.32,1.51-.51,2.18-.51,1.07,0,1.96,.49,2.28,1.45,1.05-.49,1.92-.85,2.72-1.22,.58-.25,1.07-.48,1.61-.75l.7,1.56c-.49,.15-1.22,.42-1.73,.63-.87,.34-1.97,.78-3.16,1.33,.02,.97,.03,2.33,.05,3.14h-1.61c.03-.59,.05-1.56,.07-2.4-1.46,.8-2.38,1.58-2.38,2.58,0,1.16,1.11,1.39,2.82,1.39,1.38,0,3.23-.17,4.73-.44l-.05,1.72c-1.22,.15-3.2,.31-4.73,.31-2.53,0-4.5-.6-4.5-2.7s2.04-3.42,4.01-4.42c-.22-.59-.77-.85-1.39-.85-1.04,0-2.11,.54-2.82,1.22-.49,.48-.99,1.11-1.55,1.82l-1.46-1.09c1.99-1.87,3.14-3.52,3.84-4.96h-.49c-.71,0-1.89-.03-2.84-.1v-1.6c.9,.14,2.11,.19,2.92,.19,.32,0,.66,0,1-.02,.22-.7,.36-1.41,.39-2.02l1.77,.14c-.1,.48-.24,1.1-.46,1.83Z"/><path class="d" d="M119.15,21.32c-.15,.44-.34,.97-.56,1.51h7.72c.42,0,1.16-.02,1.67-.1v1.84c-.58-.05-1.27-.05-1.67-.05h-2.65c-.31,4.69-2.14,7.63-5.13,9.52l-1.82-1.22c.54-.2,1.1-.53,1.48-.85,1.73-1.29,3.37-3.47,3.64-7.45h-4.03c-.7,1.26-1.79,2.75-2.79,3.6l-1.68-1.02c1.21-.88,2.36-2.53,2.97-3.59,.48-.82,.78-1.7,.99-2.35,.15-.49,.25-1.05,.29-1.53l2.07,.41c-.17,.41-.36,.92-.49,1.27Zm7.8,.34l-1.12,.49c-.34-.7-.88-1.72-1.34-2.36l1.09-.46c.42,.61,1.04,1.67,1.38,2.33Zm1.95-.73l-1.1,.48c-.36-.71-.92-1.7-1.39-2.33l1.1-.46c.44,.63,1.09,1.7,1.39,2.31Z"/><path class="d" d="M133.19,27.71l-1.62,.59c-.29-.9-1.17-3.21-1.55-3.88l1.6-.58c.39,.78,1.24,2.92,1.56,3.86Zm8.28-2.65c-.46,1.82-1.19,3.62-2.38,5.13-1.56,2.01-3.67,3.38-5.59,4.11l-1.41-1.45c1.92-.54,4.16-1.84,5.58-3.59,1.17-1.46,2.02-3.67,2.26-5.81l1.87,.59c-.15,.42-.26,.73-.32,1Zm-4.52,1.6l-1.6,.58c-.2-.8-.97-2.92-1.36-3.74l1.6-.53c.31,.71,1.14,2.94,1.36,3.69Z"/><path class="d" d="M145.48,21.5c0-.54-.05-1.33-.15-1.9h2.09c-.05,.56-.12,1.31-.12,1.9v2.65c2.26,.68,5.49,1.89,7.19,2.72l-.76,1.85c-1.79-.97-4.56-2.04-6.43-2.65v5.25c0,.53,.05,1.56,.14,2.18h-2.09c.08-.6,.14-1.51,.14-2.18v-9.83Z"/><path class="d" d="M165.39,20.57c-.02,.2-.02,.51-.02,.85h5.1l-.03,1.6c-1-.05-2.62-.08-5.08-.08,.02,.92,.02,1.9,.02,2.67,.39,.61,.59,1.39,.59,2.26,0,2.26-1.21,4.93-5.24,6.1l-1.45-1.43c2.01-.44,3.57-1.19,4.39-2.5-.34,.17-.75,.25-1.19,.25-1.38,0-2.86-1.02-2.86-2.96,0-1.79,1.45-3.06,3.16-3.06,.34,0,.66,.03,.95,.12,0-.44-.02-.95-.02-1.45-2.58,.03-5.37,.14-7.48,.27l-.05-1.63c1.92-.03,5.08-.12,7.51-.15-.02-.37-.02-.66-.03-.87-.05-.54-.1-1.07-.14-1.24h1.96c-.05,.22-.1,1-.1,1.24Zm-2.62,8.24c.88,0,1.55-.7,1.33-2.29-.27-.56-.76-.82-1.33-.82-.78,0-1.55,.58-1.55,1.6,0,.94,.73,1.51,1.55,1.51Z"/><path class="d" d="M175.4,20.25c.88,0,4.76-.1,5.68-.19,.59-.05,.9-.08,1.09-.15l.93,1.22c-.36,.22-.71,.46-1.07,.73-.87,.65-2.96,2.41-4.16,3.4,.68-.2,1.36-.29,2.04-.29,2.84,0,4.95,1.75,4.95,4.13,0,2.7-2.16,4.64-5.98,4.64-2.35,0-3.91-1.04-3.91-2.58,0-1.26,1.12-2.4,2.8-2.4,2.11,0,3.32,1.36,3.54,2.97,1.17-.51,1.8-1.43,1.8-2.67,0-1.6-1.56-2.75-3.69-2.75-2.72,0-4.32,1.27-6.32,3.42l-1.24-1.26c1.33-1.09,3.45-2.87,4.45-3.71,.95-.78,2.92-2.41,3.77-3.16-.9,.03-3.84,.17-4.73,.22-.42,.02-.87,.05-1.26,.1l-.05-1.75c.43,.05,.95,.07,1.36,.07Zm3.16,11.97c.43,0,.83-.02,1.21-.07-.14-1.24-.88-2.11-2.01-2.11-.71,0-1.24,.46-1.24,.97,0,.75,.83,1.21,2.04,1.21Z"/></g></g></g></g></svg>