<?xml version="1.0" encoding="UTF-8"?><svg xmlns="http://www.w3.org/2000/svg" viewBox="0 0 24.34 24.34"><defs><style>.d{fill:#fff;}.e{fill:#ffc826;}</style></defs><g id="a"/><g id="b"><g id="c"><g><circle class="e" cx="12.17" cy="12.17" r="12.17"/><path class="d" d="M9.49,18.7c-.66,0-1-.34-1-1.03V7.5c0-.69,.34-1.03,1.03-1.03h4.56c1.14,0,2.05,.27,2.71,.8,.67,.54,1,1.44,1,2.71s-.33,2.18-1,2.72-1.57,.82-2.71,.82h-3.58v4.14c0,.69-.34,1.03-1.01,1.03Zm1.01-7.05h3.3c.59,0,1.05-.13,1.38-.38,.33-.26,.49-.68,.49-1.27s-.16-1-.49-1.26c-.33-.26-.79-.38-1.38-.38h-3.3v3.3Z"/></g></g></g></svg>