<!--?xml version="1.0" encoding="utf-8"?-->
<!-- Generator: Adobe Illustrator 15.1.0, SVG Export Plug-In . SVG Version: 6.00 Build 0)  -->

<svg version="1.1" id="_x32_" xmlns="http://www.w3.org/2000/svg" xmlns:xlink="http://www.w3.org/1999/xlink" x="0px" y="0px" width="512px" height="512px" viewBox="0 0 512 512" style="width: 256px; height: 256px; opacity: 1;" xml:space="preserve">
<style type="text/css">

	.st0{fill:#4B4B4B;}

</style>
<g>
	<path class="st0" d="M209.047,390.109H17.438V109.156h191.609v112.234l17.422,8.734V89.313c0-15.359-12.563-27.922-27.906-27.922
		H27.906C12.531,61.391,0,73.953,0,89.313v333.375c0,15.344,12.531,27.922,27.906,27.922h170.656
		c15.344,0,27.906-12.578,27.906-27.922V321.031c-5.875-2.938-11.75-5.875-17.422-8.734V390.109z M113.234,424.313
		c-4.609,0-8.359-3.75-8.359-8.375s3.75-8.375,8.359-8.375s8.391,3.75,8.391,8.375S117.844,424.313,113.234,424.313z" style="fill: rgb(75, 75, 75);"></path>
	<path class="st0" d="M458.656,220.656l-97.281-48.828c-4.75-2.375-9.875-3.531-14.875-3.516
		c-12.125-0.031-23.844,6.688-29.656,18.281c-1.469,2.906-2.406,5.938-2.938,9c-0.609-0.031-1.219-0.094-1.813-0.094
		c-12.125-0.031-23.844,6.688-29.672,18.281c-2.313,4.578-3.422,9.516-3.453,14.328c-3.516,1.172-6.719,2.953-9.266,5.203
		c-4.422,3.813-7.563,8.531-10.078,13.5c-1.141,2.313-1.844,4.688-2.281,7.156l-63.875-32.063c-4.75-2.375-9.875-3.531-14.875-3.531
		c-12.141-0.016-23.844,6.719-29.688,18.297v0.016c-2.375,4.734-3.5,9.844-3.5,14.844c-0.031,12.125,6.688,23.859,18.313,29.688
		l121.641,61.031c1.797,0.906,22.156,11.109,24.047,12.063l-0.031-0.016c1.25,0.609,2.594,1.422,3.719,2.219l-43.422,10.391
		c-16.688,4.031-27.906,18.875-27.906,35.344c0,2.781,0.328,5.641,1.016,8.469c4,16.703,18.875,27.922,35.344,27.922
		c2.813,0,5.625-0.328,8.438-1h0.016l92.109-22.031c19.25-4.203,31.219-8.203,47.438-12.891
		c14.969-4.328,29.422-8.875,42.594-16.703c13.156-7.766,24.797-19.141,33-35.625C508.688,336.516,512,321.688,512,307.109
		C512.016,271.719,492.453,237.594,458.656,220.656z M483.094,341.047c-6.594,12.984-14.719,20.859-25.063,27.063
		c-10.313,6.172-23.063,10.391-37.688,14.578c-16.766,4.844-27.891,8.578-46.203,12.563l-0.203,0.063l-92.219,22.063h0.031
		c-1.219,0.281-2.438,0.406-3.625,0.422c-6.984-0.016-13.406-4.797-15.094-11.922c-0.281-1.25-0.422-2.438-0.422-3.625
		c0-6.969,4.781-13.391,11.922-15.094l45.766-10.938c0.859-0.188,1.641-0.5,2.422-0.906c3.656-1.938,6.75-4.109,9.234-7.094
		c2.484-2.922,4.203-7.031,4.172-11.063c0-3.578-1.188-6.656-2.578-9c-2.141-3.563-4.766-5.906-7.328-7.875
		c-2.563-1.938-5.156-3.438-7.484-4.609l-0.016-0.016c-1.844-0.906-22.219-11.125-24.016-12.031l-121.656-61.047
		c-4.328-2.156-6.797-6.5-6.797-11.047c0-1.875,0.406-3.719,1.313-5.516c2.156-4.313,6.484-6.781,11.031-6.797
		c1.859,0,3.719,0.406,5.531,1.313l87.531,43.938c0.625,0.313,1.281,0.563,1.969,0.734c0.125,0.031,0.25,0.047,0.375,0.078
		c0.531,0.109,1.094,0.219,1.625,0.266c0.188,0,0.344-0.016,0.5-0.016c0.516,0,1.016,0.016,1.531-0.063
		c0.469-0.063,0.953-0.188,1.422-0.313c0.172-0.047,0.359-0.063,0.531-0.125c0,0,0,0,0.016,0c1.25-0.422,2.453-1.094,3.5-1.969
		c0.031-0.047,0.063-0.094,0.094-0.125c0.969-0.844,1.813-1.891,2.438-3.125c0.313-0.625,0.563-1.281,0.75-1.953
		c0.031-0.156,0.031-0.313,0.063-0.469c0.125-0.516,0.234-1.031,0.266-1.547c0.016-0.188-0.016-0.359-0.016-0.531
		c0-0.5,0.016-1-0.063-1.5c-0.031-0.281-0.125-0.563-0.188-0.844c-0.063-0.375-0.125-0.75-0.25-1.109c0-0.016,0-0.016,0-0.031
		c-0.438-1.266-1.094-2.453-1.984-3.484c-0.016-0.031-0.063-0.047-0.094-0.094c-0.859-0.969-1.906-1.813-3.141-2.422
		c-1.109-0.578-1.719-1.25-2.344-2.391c-0.594-1.109-0.969-2.719-0.953-4.25c-0.016-1.438,0.375-2.734,0.547-3.031
		c1.656-3.313,3.531-5.781,5.031-7.031c1.563-1.281,2.313-1.484,3.531-1.531c0.469,0,1.063,0.063,1.828,0.266
		c3.891,1.047,7.984-0.234,10.609-3.281s3.25-7.297,1.625-10.984c-0.719-1.656-1.094-3.406-1.094-5.125
		c0-1.813,0.391-3.594,1.266-5.344c2.172-4.313,6.5-6.781,11.047-6.781c1.844,0,3.719,0.406,5.531,1.313l3.172,1.594
		c3.891,1.938,8.547,1.281,11.734-1.672s4.219-7.531,2.594-11.547c-0.625-1.531-0.938-3.156-0.938-4.75
		c0-1.813,0.406-3.578,1.281-5.328c2.156-4.328,6.5-6.797,11.031-6.797c1.844,0,3.719,0.406,5.516,1.313l97.297,48.813
		c26.531,13.281,41.828,40.031,41.844,67.828C491.156,318.547,488.563,330.094,483.094,341.047z" style="fill: rgb(75, 75, 75);"></path>
</g>
</svg>
