<?xml version="1.0" encoding="UTF-8"?>
<svg id="_レイヤー_2" data-name="レイヤー 2" xmlns="http://www.w3.org/2000/svg" xmlns:xlink="http://www.w3.org/1999/xlink" viewBox="0 0 1187.76 268.02">
  <defs>
    <style>
      .cls-1 {
        stroke-width: 2.25px;
      }

      .cls-1, .cls-2, .cls-3, .cls-4, .cls-5, .cls-6 {
        stroke: #21272e;
      }

      .cls-1, .cls-2, .cls-3, .cls-7, .cls-5, .cls-6 {
        stroke-linecap: round;
        stroke-linejoin: round;
      }

      .cls-1, .cls-8 {
        fill: #69a9c7;
      }

      .cls-9, .cls-4, .cls-6 {
        fill: #fff;
      }

      .cls-10 {
        fill: url(#_新規パターンスウォッチ_19_コピ);
      }

      .cls-11 {
        fill: #d6d4ce;
      }

      .cls-2, .cls-3, .cls-12, .cls-7 {
        fill: none;
      }

      .cls-2, .cls-4, .cls-5, .cls-6 {
        stroke-width: 3.74px;
      }

      .cls-13 {
        fill: #21272e;
      }

      .cls-14 {
        fill: url(#_名称未設定グラデーション_5-3);
      }

      .cls-15, .cls-5 {
        fill: #bdbec0;
      }

      .cls-3 {
        stroke-width: 2.99px;
      }

      .cls-4 {
        stroke-miterlimit: 10;
      }

      .cls-16 {
        fill: url(#_名称未設定グラデーション_5-2);
      }

      .cls-17 {
        clip-path: url(#clippath);
      }

      .cls-7 {
        stroke: #69a9c7;
        stroke-width: 5.24px;
      }

      .cls-18 {
        fill: url(#_名称未設定グラデーション_5);
      }

      .cls-19 {
        fill: url(#_名称未設定グラデーション_5-4);
      }

      .cls-20 {
        fill: #e0c96b;
      }
    </style>
    <linearGradient id="_名称未設定グラデーション_5" data-name="名称未設定グラデーション 5" x1="-404.69" y1="992.48" x2="-213.04" y2="992.48" gradientTransform="translate(564 1110.54) scale(1 -1)" gradientUnits="userSpaceOnUse">
      <stop offset="0" stop-color="#54a0ec"/>
      <stop offset="1" stop-color="#e0c3fc"/>
    </linearGradient>
    <linearGradient id="_名称未設定グラデーション_5-2" data-name="名称未設定グラデーション 5" x1="-399.73" y1="1012.77" x2="-208.08" y2="1012.77" xlink:href="#_名称未設定グラデーション_5"/>
    <linearGradient id="_名称未設定グラデーション_5-3" data-name="名称未設定グラデーション 5" y1="1013.44" y2="1013.44" xlink:href="#_名称未設定グラデーション_5"/>
    <linearGradient id="_名称未設定グラデーション_5-4" data-name="名称未設定グラデーション 5" x1="-408.7" y1="1122.24" x2="-56.97" y2="894.25" xlink:href="#_名称未設定グラデーション_5"/>
    <clipPath id="clippath">
      <rect class="cls-12" y="107.31" width="97.07" height="96.78"/>
    </clipPath>
    <pattern id="_新規パターンスウォッチ_19_コピ" data-name="新規パターンスウォッチ 19 コピ" x="0" y="0" width="24.33" height="24.74" patternTransform="translate(-7684.78 -5139.01) rotate(45) scale(.25)" patternUnits="userSpaceOnUse" viewBox="0 0 24.33 24.74">
      <g>
        <rect class="cls-12" width="24.33" height="24.74"/>
        <g>
          <rect class="cls-9" x="18.25" y="0" width="12.16" height="24.74"/>
          <rect class="cls-8" x="23.02" y="0" width="2.61" height="24.74"/>
        </g>
        <g>
          <rect class="cls-9" x="6.08" y="0" width="12.16" height="24.74"/>
          <rect class="cls-8" x="10.86" y="0" width="2.61" height="24.74"/>
        </g>
        <g>
          <rect class="cls-9" x="-6.08" y="0" width="12.16" height="24.74"/>
          <rect class="cls-8" x="-1.3" y="0" width="2.61" height="24.74"/>
        </g>
      </g>
    </pattern>
  </defs>
  <g id="_レイヤー_1-2" data-name="レイヤー 1">
    <path class="cls-18" d="M135.36,146.29h17.66l20.76-56.45h-17.93l-20.49,56.45Z"/>
    <path class="cls-18" d="M200.48,89.84l20.63,56.45h18.07l-20.49-56.45h-18.2Z"/>
    <path class="cls-16" d="M258.99,127.47h22.92l24.13-26.61v49.06h16.99V81.9l32.76-36.29h-22.92l-73.88,81.86Z"/>
    <path d="M453.27,42.52h-16.31v12.5h-59.19v16h59.19v10.08h-59.19v15.99h59.19v9.95h-56.89v44.49h73.21v-20.3h24.27v-16h-24.27v-18.28h25.35v-15.86h-25.35v-10.22h25.35v-15.86h-25.35v-12.5Zm-16.31,93.15h-40.45v-12.77h40.45v12.77Z"/>
    <path d="M598.07,85.4h-47.73l30.34-21.24v-13.71h-75.64v15.86h44.22l-27.5,19.09h-16.72v15.86h77.52v34.41h-33.84v-22.85h-43.68v38.58h93.03V85.4Zm-63.77,43.28v6.99h-14.83v-6.99h14.83Z"/>
    <path d="M381.14,171.83h11.59c4.85,0,8.49,.94,11.19,2.82,2.7,1.88,3.91,4.44,3.91,7.93,0,2.15-.67,4.03-1.89,5.51-1.35,1.61-3.1,2.82-5.26,3.63-2.29,.81-4.72,1.34-7.42,1.34h-2.02v11.02h-10.11v-32.26Zm15.91,13.71c.94-.67,1.35-1.75,1.35-2.96s-.4-2.29-1.35-2.96-2.16-.94-3.91-.94h-2.02v7.93c.67,0,1.35,.13,2.02,.13,1.75-.27,3.1-.54,3.91-1.21Z"/>
    <path d="M417.14,202.88c-2.02-1.07-3.64-2.42-4.85-4.3-1.08-1.88-1.75-3.9-1.75-6.32s.54-4.43,1.75-6.32c1.21-1.88,2.7-3.23,4.85-4.3,2.02-.94,4.45-1.48,7.01-1.48,2.7,0,4.99,.54,7.01,1.48,2.02,1.08,3.64,2.42,4.72,4.3,1.08,1.88,1.75,3.9,1.75,6.32s-.54,4.57-1.75,6.32c-1.21,1.75-2.7,3.23-4.85,4.3-2.02,1.07-4.45,1.48-7.01,1.48-2.43,0-4.85-.4-6.88-1.48Zm10.38-6.85c.81-.94,1.21-2.15,1.21-3.63s-.4-2.69-1.21-3.63c-.81-.94-1.89-1.48-3.24-1.48s-2.29,.54-3.24,1.48c-.81,.94-1.21,2.15-1.21,3.63s.4,2.69,1.21,3.63c.81,.94,1.89,1.48,3.24,1.48,1.35-.13,2.29-.54,3.24-1.48Z"/>
    <path d="M443.83,175.73c-1.08-.94-1.48-2.02-1.48-3.36s.54-2.42,1.62-3.36c1.08-.94,2.29-1.34,3.64-1.34,1.48,0,2.7,.4,3.77,1.34,1.08,.94,1.62,2.02,1.62,3.36s-.54,2.55-1.62,3.36c-1.08,.94-2.29,1.34-3.77,1.34s-2.7-.4-3.77-1.34Zm.94,26.21c-1.48-1.75-2.16-4.03-2.16-6.86v-14.38h9.98v13.98c0,.67,.13,1.21,.54,1.61,.4,.4,.94,.54,1.48,.54,.67,0,1.21-.13,1.89-.54l.54,6.45c-.67,.54-1.62,.94-2.7,1.21-1.08,.27-2.29,.4-3.51,.4-2.56,0-4.58-.81-6.07-2.42Z"/>
    <path d="M472.14,171.83h9.71l8.09,15.59,7.95-15.59h9.71v32.26h-9.71v-17.21l-5.93,11.29h-4.04l-6.07-11.29v17.21h-9.71v-32.26Z"/>
    <path d="M518.93,202.74c-1.75-1.08-3.24-2.55-4.32-4.44-1.08-1.88-1.62-3.9-1.62-6.18s.54-4.3,1.62-6.05c1.08-1.75,2.43-3.23,4.32-4.3,1.75-1.07,3.64-1.48,5.66-1.48,1.62,0,3.1,.4,4.58,1.34,1.35,.94,2.43,2.29,3.24,4.03v-5.38h9.84v23.79h-9.84v-4.3c-1.62,3.09-4.18,4.7-7.68,4.7-2.16-.13-4.04-.67-5.8-1.75Zm12-7.12c.94-.94,1.35-1.88,1.48-3.23v-.4c0-1.21-.54-2.29-1.48-3.23-.94-.81-2.02-1.34-3.24-1.34-1.35,0-2.43,.4-3.37,1.34-.94,.94-1.35,2.02-1.35,3.36s.41,2.42,1.35,3.36c.94,.94,2.02,1.34,3.37,1.34,1.21,.13,2.29-.27,3.24-1.21Z"/>
    <path d="M548.32,180.97h9.84v4.84c.67-1.88,1.75-3.23,2.97-4.03,1.21-.94,2.7-1.34,4.31-1.34l1.35,7.66c-2.97,0-5.12,.27-6.61,.94-1.35,.67-2.02,1.61-2.02,2.96v12.23h-9.84v-23.25Z"/>
    <path d="M576.63,203.15c-1.89-.81-3.37-2.15-4.45-3.76-1.08-1.61-1.62-3.36-1.62-5.38v-13.44h9.71v13.31c0,1.08,.27,1.88,.81,2.42,.54,.54,1.35,.81,2.16,.81s1.48-.27,2.02-.81c.54-.54,.81-1.34,.81-2.42v-13.31h9.44v13.44c0,2.02-.54,3.9-1.62,5.51-1.08,1.61-2.56,2.82-4.45,3.63-1.89,.94-4.04,1.34-6.47,1.34-2.29-.13-4.45-.54-6.34-1.34Z"/>
    <path class="cls-14" d="M221.51,64.16h-25.75v-19.89h-16.99v19.89h-41.66v16.26h41.52v69.49h16.99V80.43h36.27c-4.85-4.3-8.49-9.95-10.38-16.26Z"/>
    <path class="cls-19" d="M256.16,81.37c15.34,0,27.77-12.4,27.77-27.69s-12.43-27.69-27.77-27.69-27.77,12.4-27.77,27.69,12.44,27.69,27.77,27.69Z"/>
    <path class="cls-9" d="M247.4,39.97h9.98c6.74,0,11.86,2.42,11.86,9.54s-5.26,10.08-11.73,10.08h-4.04v10.75h-6.07v-30.38Zm9.84,14.79c4.18,0,6.2-1.75,6.2-5.24s-2.16-4.7-6.34-4.7h-3.64v9.95h3.78Z"/>
    <g class="cls-17">
      <g>
        <path class="cls-11" d="M63.81,149.87c12.85,0,23.31,10.43,23.31,23.24s-10.45,23.24-23.31,23.24-23.31-10.43-23.31-23.24,10.46-23.24,23.31-23.24Zm0-7.74c-17.16,0-31.07,13.87-31.07,30.98s13.91,30.98,31.07,30.98,31.08-13.87,31.08-30.98-13.91-30.98-31.08-30.98Z"/>
        <path class="cls-11" d="M64.83,162.77h-6.62c-1.06,0-1.91,.85-1.91,1.9v19.44c0,1.05,.85,1.91,1.91,1.91h.96c1.05,0,1.91-.86,1.91-1.91v-5.47h3.74c5.01,0,9.09-3.56,9.09-7.94s-4.08-7.94-9.09-7.94Zm0,11.7h-3.74v-7.52h3.74c2.37,0,4.3,1.69,4.3,3.76s-1.93,3.76-4.3,3.76Z"/>
        <path class="cls-11" d="M27.38,107.31c-13.91,0-25.19,5.48-25.19,12.23v6.53c0,6.76,11.27,12.23,25.19,12.23s25.19-5.48,25.19-12.23v-6.53c0-6.76-11.28-12.23-25.19-12.23Zm0,5.08c12.27,0,20.09,4.7,20.09,7.15s-7.82,7.15-20.09,7.15-20.09-4.7-20.09-7.15,7.82-7.15,20.09-7.15Z"/>
        <path class="cls-11" d="M27.37,148.14c4.66,0,9.02-.62,12.77-1.69-3.61,3.16-6.56,7.06-8.64,11.45-1.34,.11-2.72,.17-4.13,.17-13.91,0-25.19-5.49-25.19-12.24v-7.68c0-.12,.09-.24,.22-.25,.06-.02,.12,.01,.17,.08-.03,0,0,.09,.17,.51,2.44,5.52,12.54,9.65,24.63,9.65Z"/>
        <path class="cls-11" d="M28.07,173.11c0,1.51,.09,2.98,.29,4.43-.33,.02-.65,.02-.99,.02-13.91,0-25.19-5.47-25.19-12.22v-7.7c0-.11,.09-.21,.22-.23,.1-.01,.17,.05,.21,.12-.06-.08-.12-.12,.13,.47,2.44,5.51,12.54,9.65,24.63,9.65,.37,0,.76,0,1.13-.04-.29,1.8-.43,3.63-.43,5.5Z"/>
        <path class="cls-11" d="M36.63,196.2c-2.86,.56-5.98,.85-9.26,.85-13.91,0-25.19-5.46-25.19-12.23v-7.68c0-.12,.09-.22,.22-.23,.09-.02,.19,.03,.22,.12-.06-.08-.14-.15,.12,.45,2.44,5.53,12.54,9.66,24.63,9.66,1.2,0,2.39-.05,3.54-.12,1.43,3.36,3.37,6.46,5.72,9.18Z"/>
      </g>
    </g>
    <path d="M634.31,130.89h-5.12v-16.41c-.56,1.07-1.22,2.08-1.99,3.05l-2.97-3.01c1.59-2.7,3.02-5.84,4.28-9.43,1.28-3.59,2.1-6.82,2.48-9.69l5.29,.61c-.49,3.24-1.56,6.88-3.18,10.92h1.17l.04,23.96Zm29.34-5.04l-1.82,4.84c-5.7-.65-10.86-2.08-15.47-4.3-2.5,2.17-5.81,3.65-9.92,4.41l-1.68-4.04c2.99-.65,5.38-1.64,7.15-2.97-1.69-1.15-3.31-2.41-4.86-3.79l2.32-2.36h-2.36v-12.68h9.35v-2.44h-10.16v-4.04h10.16v-3.05h5.31v3.05h10.84v4.04h-10.84v2.44h9.16v12.68h-9.55c-.35,1.97-.95,3.65-1.8,5.04,3.84,1.6,8.56,2.66,14.16,3.16Zm-17.29-17.25h-4.32v5.29h4.3c.01-.48,.02-1.6,.02-3.34v-1.95Zm9.55,5.29v-5.29h-4.24c0,3.16,0,4.93-.02,5.29h4.26Zm-14.96,3.75c1.15,.98,2.49,1.91,4.02,2.81,.46-.77,.79-1.71,1.02-2.81h-5.04Zm45.18-.12c-.61,1.81-1.47,3.83-2.56,6.07-1.08,2.23-2.08,3.87-3.01,4.94-.92,1.05-2.06,1.58-3.42,1.58-2.81,0-5.23-1.73-7.25-5.2-2.02-3.48-3.03-7.47-3.03-11.97,0-1.47,.14-3.65,.43-6.54,.27-2.9,.41-5.08,.41-6.52h5.98c-.04,1.32-.23,3.47-.59,6.46-.34,2.77-.51,4.94-.51,6.48,0,2.99,.5,5.62,1.5,7.89,1.01,2.26,1.88,3.4,2.58,3.4,1.01,0,2.62-2.98,4.8-8.93l4.65,2.33Zm16.11,7.23l-5.88,.37c0-4.02-.7-8.09-2.11-12.19-1.41-4.1-3.32-7.61-5.74-10.53l4.73-2.36c6,6.68,9,14.91,9,24.71Zm19.45-19.1c-.04,1.46-.1,2.66-.2,3.59h16.54c0,4.56-.12,8.22-.37,11-.25,2.77-.61,4.74-1.07,5.9-.46,1.15-1.31,2.1-2.56,2.85-1.25,.76-2.74,1.13-4.47,1.13h-6.17l-.8-5.08h6.05c1.77,0,2.84-.99,3.22-2.97,.38-1.98,.57-4.78,.57-8.4h-11.5c-.9,4.09-2.48,7.51-4.75,10.25-2.25,2.73-5.17,4.96-8.75,6.68l-2.75-4c3.79-2.02,6.63-4.58,8.51-7.68,1.89-3.11,2.87-7.25,2.93-12.4l.02-.88h-9.98v-4.73h14.67v-5.27h5.53v5.27h15.65v4.73h-20.31Zm41.86-9.49c0,3-.03,5.36-.1,7.09h16.11v4.73c0,6.08-.41,10.79-1.23,14.14-.82,3.33-2.03,5.53-3.63,6.6-1.59,1.08-3.52,1.62-5.78,1.62-1.26,0-3.82-.29-7.68-.86l.23-5.43c3.66,.61,6,.92,7.03,.92h.21c1.26,0,2.23-.57,2.89-1.72,.66-1.15,1.16-2.94,1.48-5.37,.34-2.43,.51-4.88,.51-7.32v-2.27l-10.51-.02c-.64,5.56-2.23,10.18-4.77,13.87s-6.06,6.77-10.57,9.26l-3.01-4.08c3.38-2.14,6.13-4.65,8.24-7.56,2.12-2.92,3.48-6.75,4.06-11.5h-10.02v-5h10.45c.07-1.47,.1-3.83,.1-7.09h5.96Zm17.17,4.12l-2.79,1.04c-.86-2.14-1.76-4.13-2.7-6l2.7-1c.99,1.91,1.92,3.9,2.79,5.96Zm-5.57,.72l-2.83,1.07c-1.04-2.59-1.93-4.59-2.67-6l2.75-1.07c1.04,1.98,1.96,3.98,2.75,6Zm34.16,29.59h-6v-17.71c-4.86,2.49-10.27,4.45-16.23,5.88l-1.8-5.12c6.88-1.64,12.85-4.06,17.93-7.25s8.93-6.86,11.54-11l5.68,2.17c-2.01,3.01-3.87,5.34-5.59,7.01-1.72,1.67-3.57,3.19-5.55,4.57v21.45Zm52.7-14.63l-3.69,4.63c-5.55-3.76-11.29-6.67-17.25-8.71v19.04h-6.15v-35.23h6.21v10.43c6.59,2.12,13.55,5.4,20.88,9.84Zm-2.36-12.64l-2.81,1.04c-.91-2.28-1.8-4.28-2.68-6l2.68-1c1.07,2.05,2.01,4.03,2.81,5.96Zm-5.92,1.27l-2.85,1.09c-1.07-2.64-1.96-4.65-2.68-6.02l2.75-1.07c1.09,2.1,2.02,4.1,2.77,6Z"/>
    <g>
      <g>
        <path class="cls-10" d="M1011.41,148.73c7.44-4.72,17.77-10.01,23.8-11.69v.28c.44-.29,.72-.48,.72-.48,5.45-1.44,10.86-1.98,17.1-2.17v-19.2h33.87v19.2c6.24,.19,11.65,.73,17.11,2.17l.74,.19c6.04,1.68,14.52,5.34,21.27,8.63,6.75,3.28,19.41,14.26,22.84,29.55,2.75,12.27,7.55,60.67,7.56,76.65,0,3.27-.01-2.94-.01,0h-51.66s-80.82,0-80.82,0h-15.97s3.46-103.14,3.46-103.14Z"/>
        <path class="cls-20" d="M1156.43,251.86c0-.61,0,.62,0,0h0Z"/>
      </g>
      <path class="cls-6" d="M1104.02,139.25l-34.04,32.94-34.04-32.94c4.85-1.28,9.66-4.25,15.06-4.5,.67-.03,1.35-.06,2.05-.08v-19.21h33.87v19.21c.69,.02,1.37,.05,2.05,.08,5.4,.24,10.21,3.22,15.06,4.5Z"/>
      <path class="cls-8" d="M1088.96,134.77c1.28,.06,2.52,.14,3.74,.23,.22,.02,.44,.04,.66,.06,1.04,.09,2.07,.2,3.09,.33,.51,.07,1.01,.15,1.52,.23,.75,.11,1.5,.22,2.24,.36,1.26,.24,2.51,.52,3.77,.84,.02,0,.03,0,.05,.01,0,0,.28,.18,.72,.48v-.28s0,0,.01,0c.56,.16,1.17,.35,1.79,.57,.11,.04,.21,.07,.32,.11,.64,.22,1.31,.47,2,.75,0,0,.05-.03,.11-.08,5.41,1.9,11.76,4.7,17.05,7.27,6.75,3.28,19.41,14.26,22.84,29.55,2.75,12.27,7.55,60.67,7.56,76.65,0,3.27-.01-2.94-.01,0h-51.66s-15.8,0-15.8,0v-117.09Z"/>
      <g>
        <path class="cls-6" d="M970.12,159.53c-2.79-7.65-7.01-12.71-9.8-15.54-2.79-2.84-10.74-4.66-15.66-6.57-4.91-1.91-10.34-4.53-14.84-6.97-4.5-2.45-7.49,2.11-4.92,4.49,2.57,2.38,5.93,4.66,8.95,6.83-2.65-.61-7.98-3.03-11.52-3.03-.46-1.06-13.92-12.69-13.92-12.69-3.2-3.37-8.25,.13-5.92,3.87,.62,.99,.8,1.9,2.69,4.1-.15,.59-.01,1.35,.58,2.22,2.2,3.24,12.8,14.8,15.15,18.02,2.36,3.22,8.16,6.6,12.93,8.36,5.85,2.16,13.71,5.08,18.31,5.91,1.61,1.24,3.3,18.63,3.3,18.63l20.77-2.79s-3.84-15.56-6.1-24.84Z"/>
        <path class="cls-2" d="M905.18,134.02c1.92-.99,3.72-.37,4.94,1.01,1.22,1.38,13.82,13.69,13.82,13.69,6.79-.57,17.3-.26,23.92,6.91"/>
      </g>
      <polygon class="cls-6" points="976.82 177.52 974.9 168.12 949.38 173.38 951.41 181.47 976.82 177.52"/>
      <path class="cls-8" d="M997.3,170.07c5.63-14.29,14.11-21.35,14.11-21.35,5.88-3.73,19.61-10.24,19.67-10.26,.69-.28,2.21-.82,2.32-.86,.63-.21,1.23-.41,1.79-.57,0,0,0,0,.01,0v.28c.44-.29,.72-.48,.72-.48,4.84-1.28,9.68-1.83,15.06-2.07v117.09h-15.78s-27.26,0-27.26,0l.8-23.82c-5.26,9.72-16.76,30.37-19.63,30.79-3.76,.54-4.43-62.12-4.43-62.12,0,0,8.07-15.09,12.61-26.63Z"/>
      <path class="cls-2" d="M1088.96,251.86v-117.09c16.75,0,31.78,8.32,37.07,10.89,6.75,3.28,19.41,14.26,22.84,29.55,2.75,12.27,7.55,60.67,7.56,76.65,0,3.27-.01-2.94-.01,0"/>
      <path class="cls-2" d="M984.7,196.71s8.07-15.09,12.61-26.63c5.63-14.29,14.11-21.35,14.11-21.35,4.53-3.34,12.46-8.56,24.53-11.88,4.84-1.28,9.68-1.83,15.06-2.07v117.09"/>
      <path class="cls-8" d="M965.18,176.01l-17.97,3.47s9.93,53.81,12.5,67.11c3.5,18.12,14.53,16.86,21.64,15.48,7.11-1.37,14.88-4.31,11.38-22.43-2.57-13.3-12.5-67.11-12.5-67.11l-15.05,3.47Z"/>
      <path class="cls-2" d="M984.7,196.71c-2.45-13.23-4.47-24.17-4.47-24.17l-15.05,3.47-17.97,3.47s9.93,53.81,12.5,67.11c3.5,18.12,14.53,16.86,21.64,15.48,2.83-.55,8.96-3.12,12.49-8.52,4.55-6.96,11.29-18.8,14.93-25.51l-.8,23.82"/>
      <path class="cls-2" d="M990.48,226.54c-1.77-9.13-3.9-20.14-5.78-29.83"/>
      <line class="cls-2" x1="1008.73" y1="228.87" x2="1009.7" y2="200.69"/>
      <line class="cls-2" x1="1132.01" y1="251.86" x2="1130.25" y2="200.69"/>
      <g>
        <rect class="cls-6" x="1135.79" y="163.24" width="28.06" height="43.36" transform="translate(2273.78 489.86) rotate(-173.96)"/>
        <rect class="cls-6" x="1131.95" y="184.86" width="33.45" height="21.68" transform="translate(2270.36 511.25) rotate(-173.96)"/>
        <path class="cls-6" d="M1148.99,146.26c-1.62-3.21-3.46-6.06-5.43-8.78-.99-1.36-2.01-2.68-3.09-3.97-1.08-1.3-2.18-2.55-3.5-3.88-1.93-1.94-5.07-1.95-7.01-.02-1.75,1.74-1.93,4.47-.53,6.42l.14,.19c.73,1.02,1.53,2.24,2.26,3.47,.74,1.24,1.44,2.51,2.11,3.79,1.31,2.56,2.47,5.19,3.28,7.72,1.08,3.37,4.69,5.22,8.06,4.13,3.37-1.08,5.22-4.69,4.13-8.06-.1-.31-.22-.61-.36-.89l-.06-.12Z"/>
        <path class="cls-6" d="M1163.47,149.21c.7,.07,1.42-.01,2.11-.29l17.46-6.87c2.31-.91,3.44-3.52,2.54-5.82-.91-2.31-3.52-3.44-5.82-2.54l-17.46,6.87c-2.31,.91-3.44,3.52-2.54,5.82,.63,1.61,2.1,2.65,3.71,2.82Z"/>
        <rect class="cls-4" x="1135.85" y="103.47" width="37.43" height="73.2" rx="2.12" ry="2.12" transform="translate(2287.97 400.92) rotate(-173.96)"/>
        <rect class="cls-1" x="1141.32" y="114.13" width="26.73" height="49.68" transform="translate(2288.32 398.73) rotate(-173.96)"/>
        <path class="cls-13" d="M1153.94,110.78l6.95,.74c.67,.07,1.27-.41,1.34-1.08h0c.07-.67-.41-1.27-1.08-1.34l-6.95-.74c-.67-.07-1.27,.41-1.34,1.08h0c-.07,.67,.41,1.27,1.08,1.34Z"/>
        <path class="cls-13" d="M1163.46,110.56c-.07,.67,.41,1.27,1.08,1.34,.67,.07,1.27-.41,1.34-1.08,.07-.67-.41-1.27-1.08-1.34-.67-.07-1.27,.41-1.34,1.08Z"/>
        <path class="cls-13" d="M1148.22,169.43c.19-1.76,1.76-3.04,3.52-2.85,1.76,.19,3.04,1.76,2.85,3.52-.19,1.76-1.76,3.04-3.52,2.85-1.76-.19-3.04-1.76-2.85-3.52Z"/>
        <path class="cls-6" d="M1169.29,157.4c.7,.07,1.42-.01,2.11-.29l6.37-2.51c2.31-.91,3.44-3.52,2.54-5.83-.91-2.31-3.52-3.44-5.82-2.54l-6.37,2.51c-2.31,.91-3.44,3.52-2.54,5.82,.63,1.61,2.1,2.65,3.71,2.82Z"/>
        <path class="cls-6" d="M1168.22,167.47c.7,.07,1.42-.01,2.11-.29l6.37-2.51c2.31-.91,3.44-3.52,2.54-5.82s-3.52-3.44-5.82-2.54l-6.37,2.51c-2.31,.91-3.44,3.52-2.54,5.82,.63,1.61,2.1,2.65,3.71,2.82Z"/>
        <path class="cls-6" d="M1168.79,175.48c.59,.06,1.2-.01,1.79-.24l5.4-2.12c1.96-.77,2.92-2.98,2.15-4.93-.77-1.96-2.98-2.92-4.93-2.15l-5.4,2.12c-1.96,.77-2.92,2.98-2.15,4.93,.54,1.37,1.78,2.25,3.14,2.39Z"/>
        <path class="cls-8" d="M1124.67,243.97c-2.8,26.47,34.51,31.02,37.38,3.96,2.05-19.37,5.72-54.06,5.72-54.06l-37.38-3.96s-4.41,41.64-5.72,54.06Z"/>
        <path class="cls-2" d="M1124.67,243.97c-2.8,26.47,34.51,31.02,37.38,3.96,2.05-19.37,5.72-54.06,5.72-54.06l-37.38-3.96s-4.41,41.64-5.72,54.06Z"/>
      </g>
      <g>
        <polyline class="cls-3" points="1037.04 243.22 1025.59 167.21 1037.04 144.65"/>
        <polyline class="cls-3" points="1102.91 243.22 1114.36 167.21 1102.91 144.65"/>
      </g>
      <g>
        <path class="cls-5" d="M1016.27,53.72c2.75-13.91,14.38-40.76,32.97-43.6,4.62-4.71,13.52-8.55,21.13-8.21,28.66-1.27,50.35,32.88,54.1,51.81,3.75,18.94,4.82,28.82,0,38.22-4.82,9.4-24.91,20.99-54.1,20.99-29.19,0-49.28-11.59-54.1-20.99s-3.75-19.28,0-38.22Z"/>
        <g>
          <path class="cls-6" d="M1105.71,67.93c3.9-5.75,11.15-9.55,14.23-2.98,3.08,6.57-.67,15.51-5.81,20.64s-10.06,.82-10.47-2.88,2.05-14.79,2.05-14.79Z"/>
          <path class="cls-6" d="M1034.85,67.93c-3.9-5.75-11.15-9.55-14.23-2.98-3.08,6.57,.67,15.51,5.81,20.64,5.13,5.13,10.06,.82,10.47-2.88s-2.05-14.79-2.05-14.79Z"/>
        </g>
        <path class="cls-9" d="M1111.63,51.45c-.85-28.63-23.46-41.33-41.35-41.33s-40.5,12.7-41.35,41.33c-.45,15.3,2.84,34.22,5.8,43.36,4.1,12.66,6.31,15.76,16.39,21.95,10.09,6.19,16.32,8.16,19.15,8.16s9.06-1.97,19.15-8.16c10.09-6.19,12.3-9.29,16.39-21.95,2.96-9.15,6.25-28.06,5.8-43.36Z"/>
        <g>
          <path class="cls-13" d="M1087.92,64.73c-2.21,0-2.99,2.24-2.99,5s.78,5,2.99,5,2.99-2.24,2.99-5-.78-5-2.99-5Z"/>
          <path class="cls-13" d="M1052.34,64.73c-2.21,0-2.99,2.24-2.99,5,0,2.76,.78,5,2.99,5s2.99-2.24,2.99-5c0-2.76-.78-5-2.99-5Z"/>
        </g>
        <path class="cls-3" d="M1078.63,100.08c0,4.64-3.42,9.28-8.5,9.28-5.08,0-8.5-4.64-8.5-9.28h17Z"/>
        <path class="cls-3" d="M1068.81,81.03c-.6,4.22-3.74,5.25-3.76,6.96-.02,1.71,3,2.9,3,2.9"/>
        <path class="cls-15" d="M1030.71,33.91c6-16.98,26.13-25.41,37.16-25.41,11.03,0,54.35,4.21,43.89,61.22-.38-5.9-11.95-14.21-20.85-19.16-8.51-.08-19.91-7.01-26.7-16.32,0,2,1.42,7.83,5.01,13.68-5.42-1.43-13.1-6.03-19.54-12.47-3.96,8.49-11.24,18.04-14.16,19.97-.92,4.44-2.75,12.96-6.72,14.3-.31-.18-4.05-18.93,1.9-35.81Z"/>
        <path class="cls-2" d="M1035.09,57.4c-1.03,4.62-2.86,11.16-6.29,12.32"/>
        <path class="cls-2" d="M1111.76,69.72c-.38-5.9-11.95-14.21-20.85-19.16-8.51-.08-19.91-7.01-26.7-16.32,0,2,1.42,7.83,5.01,13.68-5.42-1.43-13.1-6.03-19.54-12.47-2.4,5.15-6.02,10.68-9.15,14.67"/>
        <path class="cls-2" d="M1027.73,60.93c1.09,12.98,4.63,26.56,7,33.88,4.1,12.66,6.31,15.76,16.39,21.95,10.09,6.19,16.32,8.16,19.15,8.16s9.06-1.97,19.15-8.16c10.09-6.19,12.3-9.29,16.39-21.95,2.37-7.32,5.91-20.91,7-33.88"/>
        <path class="cls-2" d="M1090.91,50.56c-6.19-3.15-10.74-10.74-11.31-13.01"/>
      </g>
      <g>
        <line class="cls-7" x1="1160.86" y1="82.25" x2="1160.2" y2="89.75"/>
        <line class="cls-7" x1="1174.86" y1="85.56" x2="1170.63" y2="91.79"/>
        <line class="cls-7" x1="1146.51" y1="82.93" x2="1149.58" y2="89.8"/>
      </g>
    </g>
    <path class="cls-9" d="M1153.2,140.83l-.44,4.99-3.21-.28,1.29-14.66,5.54,.49c1.9,.17,3.31,.68,4.23,1.54,.92,.86,1.31,2.04,1.18,3.53-.14,1.56-.79,2.75-1.96,3.58-1.17,.83-2.63,1.17-4.38,1.01l-2.25-.2Zm.63-7.37l-.44,5.04,.86,.08c1.61,.14,2.69,.01,3.25-.39s.88-1.06,.96-1.98c.07-.76-.13-1.36-.6-1.8-.47-.44-1.44-.72-2.93-.86l-1.1-.1Z"/>
  </g>
</svg>