<?xml version="1.0" encoding="UTF-8"?>
<svg id="_レイヤー_2" data-name="レイヤー 2" xmlns="http://www.w3.org/2000/svg" xmlns:xlink="http://www.w3.org/1999/xlink" viewBox="0 0 464.47 423.91">
  <defs>
    <style>
      .cls-1 {
        stroke-width: 2.44px;
      }

      .cls-1, .cls-2, .cls-3, .cls-4, .cls-5, .cls-6 {
        stroke: #21272e;
      }

      .cls-1, .cls-3, .cls-4, .cls-7, .cls-5, .cls-6 {
        stroke-linecap: round;
        stroke-linejoin: round;
      }

      .cls-1, .cls-7, .cls-8, .cls-5 {
        fill: none;
      }

      .cls-2 {
        stroke-miterlimit: 10;
      }

      .cls-2, .cls-9, .cls-3 {
        fill: #fff;
      }

      .cls-2, .cls-3, .cls-4, .cls-5 {
        stroke-width: 3.05px;
      }

      .cls-10 {
        fill: url(#_新規パターンスウォッチ_19_コピ);
      }

      .cls-11 {
        fill: #d6d4ce;
      }

      .cls-12 {
        fill: #21272e;
      }

      .cls-13 {
        fill: url(#_名称未設定グラデーション_5-5);
      }

      .cls-14 {
        fill: url(#_名称未設定グラデーション_5-3);
      }

      .cls-15, .cls-4 {
        fill: #bdbec0;
      }

      .cls-16 {
        fill: url(#_名称未設定グラデーション_5-2);
      }

      .cls-17 {
        clip-path: url(#clippath);
      }

      .cls-7 {
        stroke: #69a9c7;
        stroke-width: 4.27px;
      }

      .cls-18 {
        fill: url(#_名称未設定グラデーション_5);
      }

      .cls-19 {
        fill: url(#_名称未設定グラデーション_5-4);
      }

      .cls-20 {
        fill: #e0c96b;
      }

      .cls-6 {
        stroke-width: 1.83px;
      }

      .cls-6, .cls-21 {
        fill: #69a9c7;
      }
    </style>
    <pattern id="_新規パターンスウォッチ_19_コピ" data-name="新規パターンスウォッチ 19 コピ" x="0" y="0" width="24.33" height="24.74" patternTransform="translate(-9285.25 -5331.15) rotate(45) scale(.25)" patternUnits="userSpaceOnUse" viewBox="0 0 24.33 24.74">
      <g>
        <rect class="cls-8" width="24.33" height="24.74"/>
        <g>
          <rect class="cls-9" x="18.25" y="0" width="12.16" height="24.74"/>
          <rect class="cls-21" x="23.02" y="0" width="2.61" height="24.74"/>
        </g>
        <g>
          <rect class="cls-9" x="6.08" y="0" width="12.16" height="24.74"/>
          <rect class="cls-21" x="10.86" y="0" width="2.61" height="24.74"/>
        </g>
        <g>
          <rect class="cls-9" x="-6.08" y="0" width="12.16" height="24.74"/>
          <rect class="cls-21" x="-1.3" y="0" width="2.61" height="24.74"/>
        </g>
      </g>
    </pattern>
    <linearGradient id="_名称未設定グラデーション_5" data-name="名称未設定グラデーション 5" x1="-538.29" y1="623.79" x2="-346.64" y2="623.79" gradientTransform="translate(564 715.87) scale(1 -1)" gradientUnits="userSpaceOnUse">
      <stop offset="0" stop-color="#54a0ec"/>
      <stop offset="1" stop-color="#e0c3fc"/>
    </linearGradient>
    <linearGradient id="_名称未設定グラデーション_5-2" data-name="名称未設定グラデーション 5" x1="-538.29" x2="-346.64" xlink:href="#_名称未設定グラデーション_5"/>
    <linearGradient id="_名称未設定グラデーション_5-3" data-name="名称未設定グラデーション 5" x1="-533.33" y1="644.09" x2="-341.68" y2="644.09" xlink:href="#_名称未設定グラデーション_5"/>
    <linearGradient id="_名称未設定グラデーション_5-4" data-name="名称未設定グラデーション 5" y1="644.76" y2="644.76" xlink:href="#_名称未設定グラデーション_5"/>
    <linearGradient id="_名称未設定グラデーション_5-5" data-name="名称未設定グラデーション 5" x1="-542.29" y1="753.55" x2="-190.56" y2="525.57" xlink:href="#_名称未設定グラデーション_5"/>
    <clipPath id="clippath">
      <rect class="cls-8" x="135.77" y="315" width="97.07" height="96.78"/>
    </clipPath>
  </defs>
  <g id="_レイヤー_1-2" data-name="レイヤー 1">
    <g>
      <g>
        <path class="cls-10" d="M313.26,326.66c6.07-3.85,14.48-8.16,19.41-9.53v.23c.36-.24,.59-.39,.59-.39,4.45-1.17,8.86-1.61,13.94-1.77v-15.66h27.61v15.66c5.09,.15,9.5,.6,13.94,1.77l.6,.16c4.92,1.37,11.84,4.36,17.34,7.03,5.5,2.68,15.83,11.63,18.62,24.09,2.24,10,6.15,49.46,6.16,62.49,0,2.67,0-2.4,0,0h-42.12s-65.89,0-65.89,0h-13.02s2.82-84.08,2.82-84.08Z"/>
        <path class="cls-20" d="M431.48,410.74c0-.5,0,.51,0,0h0Z"/>
      </g>
      <path class="cls-3" d="M388.75,318.93l-27.75,26.86-27.75-26.86c3.95-1.04,7.88-3.47,12.28-3.67,.55-.02,1.1-.05,1.67-.06v-15.66h27.61v15.66c.56,.02,1.12,.04,1.67,.06,4.4,.2,8.32,2.62,12.28,3.67Z"/>
      <path class="cls-21" d="M376.47,315.28c1.04,.05,2.05,.11,3.05,.19,.18,.01,.36,.03,.54,.05,.85,.07,1.69,.16,2.52,.27,.42,.05,.82,.13,1.24,.19,.61,.09,1.22,.18,1.83,.3,1.03,.2,2.05,.42,3.07,.69,.01,0,.03,0,.04,0,0,0,.23,.15,.59,.39v-.23s0,0,0,0c.46,.13,.95,.29,1.46,.46,.09,.03,.17,.06,.26,.09,.52,.18,1.06,.39,1.63,.61,0,0,.04-.02,.09-.06,4.41,1.55,9.58,3.83,13.9,5.93,5.5,2.68,15.83,11.63,18.62,24.09,2.24,10,6.15,49.46,6.16,62.49,0,2.67,0-2.4,0,0h-42.12s-12.88,0-12.88,0v-95.46Z"/>
      <g>
        <path class="cls-3" d="M279.59,335.47c-2.28-6.24-5.71-10.36-7.99-12.67-2.27-2.31-8.76-3.8-12.76-5.35-4.01-1.56-8.43-3.69-12.1-5.69-3.67-1.99-6.11,1.72-4.01,3.66,2.09,1.94,4.83,3.8,7.29,5.57-2.16-.5-6.51-2.47-9.39-2.47-.38-.87-11.35-10.34-11.35-10.34-2.61-2.75-6.73,.1-4.83,3.16,.5,.81,.65,1.55,2.19,3.35-.12,.48,0,1.1,.47,1.81,1.79,2.64,10.43,12.07,12.35,14.69,1.92,2.62,6.65,5.38,10.54,6.81,4.77,1.76,11.17,4.14,14.93,4.82,1.31,1.01,2.69,15.19,2.69,15.19l16.93-2.27s-3.13-12.69-4.97-20.25Z"/>
        <path class="cls-5" d="M226.65,314.67c1.57-.81,3.04-.3,4.03,.82,.99,1.13,11.26,11.16,11.26,11.16,5.53-.46,14.1-.22,19.5,5.63"/>
      </g>
      <polygon class="cls-3" points="285.05 350.13 283.49 342.47 262.69 346.76 264.34 353.35 285.05 350.13"/>
      <path class="cls-21" d="M301.75,344.06c4.59-11.65,11.5-17.4,11.5-17.4,4.79-3.04,15.99-8.34,16.04-8.36,.57-.22,1.81-.67,1.89-.7,.51-.17,1.01-.33,1.46-.46,0,0,0,0,0,0v.23c.36-.24,.59-.39,.59-.39,3.95-1.04,7.89-1.49,12.28-1.69v95.46h-12.87s-22.22,0-22.22,0l.65-19.42c-4.29,7.92-13.66,24.76-16.01,25.1-3.06,.44-3.61-50.64-3.61-50.64,0,0,6.58-12.3,10.28-21.71Z"/>
      <path class="cls-5" d="M376.47,410.74v-95.46c13.66,0,25.91,6.78,30.22,8.88,5.5,2.68,15.83,11.63,18.62,24.09,2.24,10,6.15,49.46,6.16,62.49,0,2.67,0-2.4,0,0"/>
      <path class="cls-5" d="M291.47,365.77s6.58-12.3,10.28-21.71c4.59-11.65,11.5-17.4,11.5-17.4,3.7-2.72,10.16-6.98,19.99-9.69,3.95-1.04,7.89-1.49,12.28-1.69v95.46"/>
      <path class="cls-21" d="M275.56,348.9l-14.65,2.83s8.09,43.87,10.19,54.71c2.85,14.77,11.84,13.74,17.64,12.62,5.8-1.12,12.13-3.51,9.28-18.28-2.09-10.84-10.19-54.71-10.19-54.71l-12.27,2.83Z"/>
      <path class="cls-5" d="M291.47,365.77c-2-10.79-3.64-19.71-3.64-19.71l-12.27,2.83-14.65,2.83s8.09,43.87,10.19,54.71c2.85,14.77,11.84,13.74,17.64,12.62,2.3-.44,7.3-2.54,10.18-6.94,3.71-5.68,9.21-15.33,12.17-20.79l-.65,19.42"/>
      <path class="cls-5" d="M296.19,390.09c-1.44-7.44-3.18-16.42-4.71-24.32"/>
      <line class="cls-5" x1="311.07" y1="392" x2="311.86" y2="369.02"/>
      <line class="cls-5" x1="411.57" y1="410.74" x2="410.13" y2="369.02"/>
      <g>
        <rect class="cls-3" x="414.65" y="338.49" width="22.88" height="35.35" transform="translate(812.31 755.2) rotate(-173.96)"/>
        <rect class="cls-3" x="411.53" y="356.11" width="27.27" height="17.67" transform="translate(809.53 772.63) rotate(-173.96)"/>
        <path class="cls-3" d="M425.41,324.65c-1.32-2.61-2.82-4.94-4.43-7.16-.81-1.11-1.64-2.18-2.52-3.24-.88-1.06-1.78-2.08-2.85-3.16-1.57-1.58-4.14-1.59-5.72-.02-1.43,1.42-1.57,3.65-.43,5.23l.11,.16c.6,.83,1.25,1.83,1.84,2.83,.6,1.01,1.18,2.04,1.72,3.09,1.07,2.09,2.01,4.23,2.67,6.29,.88,2.74,3.82,4.25,6.57,3.37,2.74-.88,4.25-3.82,3.37-6.57-.08-.25-.18-.5-.3-.73l-.05-.1Z"/>
        <path class="cls-3" d="M437.22,327.05c.57,.06,1.16-.01,1.72-.23l14.23-5.6c1.88-.74,2.81-2.87,2.07-4.75-.74-1.88-2.87-2.81-4.75-2.07l-14.23,5.6c-1.88,.74-2.81,2.87-2.07,4.75,.52,1.31,1.71,2.16,3.03,2.3Z"/>
        <rect class="cls-2" x="414.7" y="289.76" width="30.52" height="59.68" rx="2.12" ry="2.12" transform="translate(823.88 682.69) rotate(-173.96)"/>
        <rect class="cls-6" x="419.16" y="298.45" width="21.79" height="40.5" transform="translate(824.17 680.91) rotate(-173.96)"/>
        <path class="cls-12" d="M429.45,295.72l5.67,.6c.54,.06,1.03-.34,1.09-.88h0c.06-.54-.34-1.03-.88-1.09l-5.67-.6c-.54-.06-1.03,.34-1.09,.88h0c-.06,.54,.34,1.03,.88,1.09Z"/>
        <path class="cls-12" d="M437.21,295.54c-.06,.54,.34,1.03,.88,1.09,.54,.06,1.03-.34,1.09-.88,.06-.54-.34-1.03-.88-1.09-.54-.06-1.03,.34-1.09,.88Z"/>
        <path class="cls-12" d="M424.79,343.54c.15-1.43,1.44-2.47,2.87-2.32,1.43,.15,2.47,1.44,2.32,2.87-.15,1.43-1.44,2.47-2.87,2.32-1.43-.15-2.47-1.44-2.32-2.87Z"/>
        <path class="cls-3" d="M441.96,333.73c.57,.06,1.16-.01,1.72-.23l5.2-2.04c1.88-.74,2.81-2.87,2.07-4.75-.74-1.88-2.87-2.81-4.75-2.07l-5.2,2.04c-1.88,.74-2.81,2.87-2.07,4.75,.52,1.31,1.71,2.16,3.02,2.3Z"/>
        <path class="cls-3" d="M441.09,341.93c.57,.06,1.16-.01,1.72-.23l5.2-2.04c1.88-.74,2.81-2.87,2.07-4.75s-2.87-2.81-4.75-2.07l-5.2,2.04c-1.88,.74-2.81,2.87-2.07,4.75,.52,1.31,1.71,2.16,3.03,2.3Z"/>
        <path class="cls-3" d="M441.56,348.46c.48,.05,.98-.01,1.46-.2l4.4-1.73c1.59-.63,2.38-2.43,1.75-4.02-.63-1.59-2.43-2.38-4.02-1.75l-4.4,1.73c-1.59,.63-2.38,2.43-1.75,4.02,.44,1.11,1.45,1.83,2.56,1.95Z"/>
        <path class="cls-21" d="M405.58,404.3c-2.28,21.58,28.14,25.29,30.47,3.23,1.67-15.79,4.67-44.07,4.67-44.07l-30.47-3.23s-3.59,33.95-4.67,44.07Z"/>
        <path class="cls-5" d="M405.58,404.3c-2.28,21.58,28.14,25.29,30.47,3.23,1.67-15.79,4.67-44.07,4.67-44.07l-30.47-3.23s-3.59,33.95-4.67,44.07Z"/>
      </g>
      <g>
        <polyline class="cls-1" points="334.15 403.69 324.82 341.72 334.15 323.33"/>
        <polyline class="cls-1" points="387.85 403.69 397.18 341.72 387.85 323.33"/>
      </g>
      <g>
        <path class="cls-4" d="M317.21,249.2c2.25-11.34,11.73-33.23,26.88-35.55,3.76-3.84,11.02-6.97,17.22-6.69,23.36-1.04,41.05,26.8,44.1,42.24,3.06,15.44,3.93,23.5,0,31.16-3.93,7.66-20.31,17.11-44.1,17.11-23.8,0-40.17-9.45-44.1-17.11-3.93-7.66-3.06-15.72,0-31.16Z"/>
        <g>
          <path class="cls-3" d="M390.13,260.79c3.18-4.69,9.09-7.79,11.6-2.43,2.51,5.36-.55,12.64-4.73,16.83s-8.2,.67-8.54-2.34,1.67-12.05,1.67-12.05Z"/>
          <path class="cls-3" d="M332.37,260.79c-3.18-4.69-9.09-7.79-11.6-2.43-2.51,5.36,.55,12.64,4.73,16.83,4.19,4.19,8.2,.67,8.54-2.34s-1.67-12.05-1.67-12.05Z"/>
        </g>
        <path class="cls-9" d="M394.96,247.35c-.69-23.34-19.12-33.69-33.71-33.69s-33.02,10.36-33.71,33.69c-.37,12.47,2.32,27.9,4.73,35.35,3.34,10.32,5.14,12.85,13.37,17.89,8.22,5.05,13.3,6.65,15.61,6.65s7.39-1.61,15.61-6.65c8.23-5.05,10.02-7.57,13.37-17.89,2.41-7.46,5.1-22.88,4.73-35.35Z"/>
        <g>
          <path class="cls-12" d="M375.62,258.18c-1.8,0-2.44,1.82-2.44,4.07s.64,4.07,2.44,4.07,2.44-1.82,2.44-4.07-.64-4.07-2.44-4.07Z"/>
          <path class="cls-12" d="M346.62,258.18c-1.8,0-2.44,1.82-2.44,4.07s.64,4.07,2.44,4.07,2.44-1.82,2.44-4.07-.64-4.07-2.44-4.07Z"/>
        </g>
        <path class="cls-1" d="M368.05,287c0,3.78-2.79,7.57-6.93,7.57-4.14,0-6.93-3.78-6.93-7.57h13.86Z"/>
        <path class="cls-1" d="M360.05,271.47c-.49,3.44-3.05,4.28-3.07,5.67-.02,1.4,2.45,2.37,2.45,2.37"/>
        <path class="cls-15" d="M328.98,233.06c4.89-13.85,21.3-20.72,30.3-20.72,8.99,0,44.31,3.44,35.78,49.91-.31-4.81-9.74-11.59-17-15.62-6.94-.07-16.24-5.72-21.76-13.31,0,1.63,1.16,6.39,4.08,11.16-4.42-1.17-10.68-4.91-15.93-10.17-3.23,6.92-9.17,14.7-11.55,16.28-.75,3.62-2.24,10.57-5.47,11.66-.25-.14-3.31-15.44,1.55-29.19Z"/>
        <path class="cls-5" d="M332.56,252.21c-.84,3.76-2.33,9.1-5.13,10.04"/>
        <path class="cls-5" d="M395.06,262.25c-.31-4.81-9.74-11.59-17-15.62-6.94-.07-16.24-5.72-21.76-13.31,0,1.63,1.16,6.39,4.08,11.16-4.42-1.17-10.68-4.91-15.93-10.17-1.96,4.19-4.91,8.71-7.46,11.96"/>
        <path class="cls-5" d="M326.56,255.08c.89,10.58,3.78,21.65,5.71,27.62,3.34,10.32,5.14,12.85,13.37,17.89,8.22,5.05,13.3,6.65,15.61,6.65s7.39-1.61,15.61-6.65c8.23-5.05,10.02-7.57,13.37-17.89,1.93-5.97,4.82-17.04,5.71-27.62"/>
        <path class="cls-5" d="M378.07,246.63c-5.05-2.56-8.76-8.75-9.22-10.61"/>
      </g>
      <g>
        <line class="cls-7" x1="435.09" y1="272.46" x2="434.55" y2="278.58"/>
        <line class="cls-7" x1="446.5" y1="275.16" x2="443.06" y2="280.24"/>
        <line class="cls-7" x1="423.39" y1="273.01" x2="425.9" y2="278.62"/>
      </g>
    </g>
    <path class="cls-18" d="M1.77,120.3H19.43l20.76-56.45H22.26L1.77,120.3Z"/>
    <path class="cls-16" d="M66.88,63.85l20.63,56.45h18.07l-20.49-56.45h-18.2Z"/>
    <path class="cls-14" d="M125.4,101.48h22.92l24.13-26.61v49.06h16.99V55.92l32.76-36.29h-22.92L125.4,101.48Z"/>
    <path d="M319.67,16.53h-16.31v12.5h-59.19v16h59.19v10.08h-59.19v16h59.19v9.95h-56.9v44.49h73.21v-20.3h24.27v-16h-24.27v-18.28h25.35v-15.86h-25.35v-10.22h25.35v-15.86h-25.35v-12.5Zm-16.31,93.15h-40.45v-12.77h40.45v12.77Z"/>
    <path d="M464.47,59.41h-47.73l30.33-21.24v-13.71h-75.64v15.86h44.22l-27.5,19.09h-16.72v15.86h77.52v34.41h-33.84v-22.85h-43.68v38.58h93.03V59.41Zm-63.77,43.28v6.99h-14.83v-6.99h14.83Z"/>
    <path d="M247.55,145.84h11.59c4.85,0,8.49,.94,11.19,2.82,2.7,1.88,3.91,4.43,3.91,7.93,0,2.15-.67,4.03-1.89,5.51-1.35,1.61-3.1,2.82-5.26,3.63-2.29,.81-4.72,1.35-7.42,1.35h-2.02v11.02h-10.11v-32.26Zm15.91,13.71c.94-.67,1.35-1.75,1.35-2.96s-.4-2.28-1.35-2.96c-.94-.67-2.16-.94-3.91-.94h-2.02v7.93c.67,0,1.35,.13,2.02,.13,1.75-.27,3.1-.54,3.91-1.21Z"/>
    <path d="M283.54,176.89c-2.02-1.08-3.64-2.42-4.85-4.3-1.08-1.88-1.75-3.9-1.75-6.32s.54-4.44,1.75-6.32c1.21-1.88,2.7-3.23,4.85-4.3,2.02-.94,4.45-1.48,7.01-1.48,2.7,0,4.99,.54,7.01,1.48,2.02,1.08,3.64,2.42,4.72,4.3,1.08,1.88,1.75,3.9,1.75,6.32s-.54,4.57-1.75,6.32c-1.21,1.75-2.7,3.23-4.85,4.3-2.02,1.07-4.45,1.48-7.01,1.48-2.43,0-4.85-.4-6.88-1.48Zm10.38-6.86c.81-.94,1.21-2.15,1.21-3.63s-.4-2.69-1.21-3.63c-.81-.94-1.89-1.48-3.24-1.48s-2.29,.54-3.23,1.48c-.81,.94-1.21,2.15-1.21,3.63s.4,2.69,1.21,3.63c.81,.94,1.89,1.48,3.23,1.48,1.35-.13,2.29-.54,3.24-1.48Z"/>
    <path d="M310.24,149.74c-1.08-.94-1.48-2.02-1.48-3.36s.54-2.42,1.62-3.36c1.08-.94,2.29-1.34,3.64-1.34,1.48,0,2.7,.4,3.77,1.34,1.08,.94,1.62,2.02,1.62,3.36s-.54,2.55-1.62,3.36c-1.08,.94-2.29,1.34-3.77,1.34s-2.7-.4-3.78-1.34Zm.94,26.21c-1.48-1.75-2.16-4.03-2.16-6.85v-14.38h9.98v13.98c0,.67,.14,1.21,.54,1.61,.4,.4,.94,.54,1.48,.54,.67,0,1.21-.13,1.89-.54l.54,6.45c-.67,.54-1.62,.94-2.7,1.21-1.08,.27-2.29,.4-3.51,.4-2.56,0-4.58-.81-6.07-2.42Z"/>
    <path d="M338.55,145.84h9.71l8.09,15.59,7.96-15.59h9.71v32.26h-9.71v-17.21l-5.93,11.29h-4.04l-6.07-11.29v17.21h-9.71v-32.26Z"/>
    <path d="M385.33,176.76c-1.75-1.07-3.24-2.55-4.31-4.43-1.08-1.88-1.62-3.9-1.62-6.18s.54-4.3,1.62-6.05c1.08-1.75,2.43-3.23,4.31-4.3,1.75-1.08,3.64-1.48,5.66-1.48,1.62,0,3.1,.4,4.58,1.34,1.35,.94,2.43,2.29,3.24,4.03v-5.38h9.84v23.79h-9.84v-4.3c-1.62,3.09-4.18,4.71-7.68,4.71-2.16-.13-4.04-.67-5.8-1.75Zm12-7.12c.94-.94,1.35-1.88,1.48-3.23v-.4c0-1.21-.54-2.29-1.48-3.23-.94-.81-2.02-1.34-3.24-1.34-1.35,0-2.43,.4-3.37,1.34-.94,.94-1.35,2.02-1.35,3.36s.4,2.42,1.35,3.36,2.02,1.34,3.37,1.34c1.21,.14,2.29-.27,3.24-1.21Z"/>
    <path d="M414.72,154.98h9.84v4.84c.67-1.88,1.75-3.23,2.97-4.03,1.21-.94,2.7-1.34,4.32-1.34l1.35,7.66c-2.97,0-5.12,.27-6.61,.94-1.35,.67-2.02,1.61-2.02,2.96v12.23h-9.84v-23.25Z"/>
    <path d="M443.04,177.16c-1.89-.81-3.37-2.15-4.45-3.76-1.08-1.61-1.62-3.36-1.62-5.38v-13.44h9.71v13.31c0,1.08,.27,1.88,.81,2.42,.54,.54,1.35,.81,2.16,.81s1.48-.27,2.02-.81c.54-.54,.81-1.34,.81-2.42v-13.31h9.44v13.44c0,2.02-.54,3.9-1.62,5.51-1.08,1.61-2.56,2.82-4.45,3.63-1.89,.94-4.05,1.34-6.47,1.34-2.29-.13-4.45-.54-6.34-1.34Z"/>
    <path class="cls-19" d="M87.92,38.17h-25.75V18.28h-16.99v19.89H3.52v16.26H45.04V123.93h16.99V54.44h36.27c-4.85-4.3-8.49-9.95-10.38-16.26Z"/>
    <path class="cls-13" d="M122.57,55.38c15.34,0,27.77-12.4,27.77-27.69S137.9,0,122.57,0s-27.77,12.4-27.77,27.69,12.43,27.69,27.77,27.69Z"/>
    <path class="cls-9" d="M113.8,13.98h9.98c6.74,0,11.87,2.42,11.87,9.54s-5.26,10.08-11.73,10.08h-4.04v10.75h-6.07V13.98Zm9.84,14.79c4.18,0,6.2-1.75,6.2-5.24s-2.16-4.7-6.34-4.7h-3.64v9.95h3.78Z"/>
    <path d="M10.08,257.17H4.96v-16.41c-.56,1.07-1.22,2.08-1.99,3.05l-2.97-3.01c1.59-2.7,3.01-5.84,4.28-9.43,1.28-3.59,2.1-6.82,2.48-9.69l5.29,.61c-.49,3.24-1.56,6.88-3.18,10.92h1.17l.04,23.96Zm29.34-5.04l-1.82,4.84c-5.7-.65-10.86-2.08-15.47-4.3-2.5,2.17-5.81,3.65-9.92,4.41l-1.68-4.04c2.99-.65,5.38-1.64,7.15-2.97-1.69-1.15-3.31-2.41-4.86-3.79l2.32-2.36h-2.36v-12.68h9.36v-2.44H11.97v-4.04h10.16v-3.05h5.31v3.05h10.84v4.04h-10.84v2.44h9.16v12.68h-9.55c-.35,1.97-.95,3.65-1.8,5.04,3.84,1.6,8.56,2.66,14.16,3.16Zm-17.29-17.25h-4.32v5.29h4.3c.01-.48,.02-1.6,.02-3.34v-1.95Zm9.55,5.29v-5.29h-4.24c0,3.16,0,4.93-.02,5.29h4.26Zm-14.96,3.75c1.15,.98,2.49,1.91,4.02,2.81,.46-.77,.79-1.71,1.02-2.81h-5.04Zm45.18-.12c-.61,1.81-1.46,3.83-2.56,6.07-1.08,2.23-2.08,3.87-3.01,4.94-.92,1.05-2.06,1.58-3.42,1.58-2.81,0-5.23-1.73-7.25-5.2-2.02-3.48-3.03-7.47-3.03-11.97,0-1.47,.14-3.65,.43-6.54,.27-2.9,.41-5.08,.41-6.52h5.98c-.04,1.32-.23,3.47-.59,6.46-.34,2.77-.51,4.94-.51,6.48,0,2.99,.5,5.62,1.5,7.89,1.02,2.26,1.88,3.4,2.58,3.4,1.02,0,2.62-2.98,4.8-8.93l4.65,2.33Zm16.11,7.23l-5.88,.37c0-4.02-.7-8.09-2.11-12.19-1.41-4.1-3.32-7.61-5.74-10.53l4.73-2.36c6,6.68,9,14.91,9,24.71Zm19.45-19.1c-.04,1.46-.1,2.66-.2,3.59h16.54c0,4.56-.12,8.22-.37,11-.25,2.77-.61,4.74-1.07,5.9-.46,1.15-1.31,2.1-2.56,2.85-1.25,.76-2.74,1.13-4.47,1.13h-6.17l-.8-5.08h6.05c1.77,0,2.84-.99,3.22-2.97,.38-1.98,.57-4.78,.57-8.4h-11.5c-.9,4.09-2.48,7.51-4.75,10.25-2.25,2.73-5.17,4.96-8.75,6.68l-2.75-4c3.79-2.02,6.63-4.58,8.52-7.68,1.89-3.11,2.86-7.25,2.93-12.4l.02-.88h-9.98v-4.73h14.67v-5.27h5.53v5.27h15.65v4.73h-20.31Zm41.86-9.49c0,3-.03,5.36-.1,7.09h16.11v4.73c0,6.08-.41,10.79-1.23,14.14-.82,3.33-2.03,5.53-3.63,6.6-1.59,1.08-3.51,1.62-5.78,1.62-1.26,0-3.82-.29-7.68-.86l.23-5.43c3.66,.61,6,.92,7.03,.92h.22c1.26,0,2.23-.57,2.89-1.72,.66-1.15,1.16-2.94,1.49-5.37,.34-2.43,.51-4.88,.51-7.32v-2.27l-10.51-.02c-.64,5.56-2.23,10.18-4.77,13.87s-6.06,6.77-10.57,9.26l-3.01-4.08c3.39-2.14,6.13-4.65,8.24-7.56,2.12-2.92,3.48-6.75,4.06-11.5h-10.02v-5h10.45c.07-1.47,.1-3.83,.1-7.09h5.96Zm17.17,4.12l-2.79,1.04c-.86-2.14-1.76-4.13-2.7-6l2.7-1c.99,1.92,1.92,3.9,2.79,5.96Zm-5.57,.72l-2.83,1.07c-1.04-2.59-1.93-4.59-2.68-6l2.75-1.07c1.04,1.98,1.96,3.98,2.75,6Zm34.16,29.59h-6v-17.71c-4.86,2.49-10.27,4.45-16.23,5.88l-1.8-5.12c6.88-1.64,12.85-4.06,17.93-7.25,5.08-3.19,8.93-6.86,11.54-11l5.68,2.17c-2.01,3.01-3.87,5.34-5.59,7.01-1.72,1.67-3.57,3.19-5.55,4.57v21.45Zm52.7-14.63l-3.69,4.63c-5.55-3.76-11.29-6.67-17.25-8.71v19.04h-6.15v-35.23h6.21v10.43c6.59,2.12,13.55,5.4,20.88,9.84Zm-2.36-12.64l-2.81,1.04c-.91-2.28-1.8-4.28-2.68-6l2.68-1c1.07,2.05,2.01,4.03,2.81,5.96Zm-5.92,1.27l-2.85,1.09c-1.07-2.64-1.96-4.65-2.68-6.02l2.75-1.07c1.09,2.1,2.02,4.1,2.77,6Z"/>
    <g class="cls-17">
      <g>
        <path class="cls-11" d="M199.58,357.56c12.85,0,23.31,10.43,23.31,23.24s-10.45,23.24-23.31,23.24-23.3-10.43-23.3-23.24,10.46-23.24,23.3-23.24Zm0-7.74c-17.16,0-31.07,13.87-31.07,30.98s13.91,30.98,31.07,30.98,31.07-13.87,31.07-30.98-13.91-30.98-31.07-30.98Z"/>
        <path class="cls-11" d="M200.59,370.46h-6.62c-1.06,0-1.91,.85-1.91,1.9v19.45c0,1.05,.85,1.91,1.91,1.91h.96c1.05,0,1.91-.86,1.91-1.91v-5.47h3.75c5.01,0,9.08-3.56,9.08-7.94s-4.08-7.94-9.08-7.94Zm0,11.7h-3.75v-7.52h3.75c2.37,0,4.3,1.69,4.3,3.76s-1.93,3.76-4.3,3.76Z"/>
        <path class="cls-11" d="M163.14,315c-13.92,0-25.19,5.48-25.19,12.23v6.53c0,6.76,11.27,12.23,25.19,12.23s25.19-5.48,25.19-12.23v-6.53c0-6.76-11.28-12.23-25.19-12.23Zm0,5.08c12.27,0,20.09,4.7,20.09,7.15s-7.82,7.15-20.09,7.15-20.09-4.7-20.09-7.15,7.82-7.15,20.09-7.15Z"/>
        <path class="cls-11" d="M163.14,355.83c4.66,0,9.02-.62,12.77-1.69-3.61,3.16-6.56,7.07-8.64,11.45-1.34,.11-2.72,.17-4.13,.17-13.91,0-25.19-5.48-25.19-12.24v-7.68c0-.12,.09-.24,.22-.25,.06-.02,.12,.01,.17,.08-.03,0,0,.09,.17,.51,2.44,5.52,12.54,9.65,24.63,9.65Z"/>
        <path class="cls-11" d="M163.84,380.8c0,1.51,.09,2.98,.29,4.43-.33,.02-.65,.02-.99,.02-13.91,0-25.19-5.47-25.19-12.22v-7.7c0-.11,.09-.21,.22-.23,.1-.01,.17,.05,.21,.12-.06-.08-.12-.12,.13,.47,2.44,5.51,12.54,9.65,24.63,9.65,.37,0,.76,0,1.13-.04-.29,1.8-.43,3.63-.43,5.5Z"/>
        <path class="cls-11" d="M172.4,403.89c-2.86,.56-5.98,.85-9.26,.85-13.91,0-25.19-5.46-25.19-12.23v-7.68c0-.12,.09-.22,.22-.23,.09-.02,.19,.03,.22,.12-.06-.08-.14-.15,.12,.45,2.44,5.53,12.54,9.66,24.63,9.66,1.2,0,2.39-.05,3.54-.12,1.43,3.36,3.37,6.46,5.72,9.18Z"/>
      </g>
    </g>
    <path class="cls-9" d="M428.28,321.5l-.44,4.99-3.21-.28,1.29-14.66,5.54,.49c1.9,.17,3.31,.68,4.23,1.54,.92,.86,1.31,2.04,1.18,3.53-.14,1.56-.79,2.75-1.96,3.58-1.17,.83-2.63,1.17-4.38,1.01l-2.25-.2Zm.63-7.37l-.44,5.04,.86,.08c1.61,.14,2.69,.01,3.25-.39s.88-1.06,.96-1.98c.07-.76-.13-1.36-.6-1.8-.47-.44-1.44-.72-2.93-.86l-1.1-.1Z"/>
  </g>
</svg>