<!--?xml version="1.0" encoding="utf-8"?-->
<!-- Generator: Adobe Illustrator 18.1.1, SVG Export Plug-In . SVG Version: 6.00 Build 0)  -->

<svg version="1.1" id="_x32_" xmlns="http://www.w3.org/2000/svg" xmlns:xlink="http://www.w3.org/1999/xlink" x="0px" y="0px" viewBox="0 0 512 512" style="width: 256px; height: 256px; opacity: 1;" xml:space="preserve">
<style type="text/css">
	.st0{fill:#4B4B4B;}
</style>
<g>
	<path class="st0" d="M486.562,115.434c-3.104-6.719-8.323-12.041-14.634-15.546c-6.311-3.506-13.684-5.282-21.464-5.282
		c-13.637,0-28.586,5.462-41.813,17.15c-11.02,9.722-20.75,23.791-27.784,42.504V16.356C380.866,7.334,373.525,0,364.51,0H134.97
		c-9.031,0-16.356,7.334-16.356,16.356v134.007l-34.638-13.047c-5.273-1.98-10.712-2.924-16.064-2.924
		c-9.244,0-18.18,2.798-25.678,7.907c-7.506,5.093-13.581,12.512-17.016,21.63c-1.989,5.266-2.932,10.72-2.932,16.057
		c0,9.235,2.814,18.171,7.907,25.678c5.093,7.49,12.52,13.573,21.638,17.008l30.723,11.569c-1.886,0.912-3.709,1.965-5.454,3.152
		c-7.09,4.834-12.882,11.868-16.121,20.506c-1.894,4.974-2.782,10.139-2.782,15.208c0,8.764,2.641,17.212,7.491,24.341
		c4.841,7.098,11.868,12.844,20.513,16.129l2.279,0.848c-0.841,0.495-1.674,1.022-2.476,1.564
		c-7.136,4.818-12.897,11.844-16.136,20.514c-1.894,4.975-2.782,10.131-2.782,15.208c0,8.772,2.648,17.204,7.506,24.302
		c4.794,7.136,11.829,12.889,20.459,16.128l2.272,0.864c-0.88,0.495-1.722,1.029-2.555,1.603
		c-7.105,4.802-12.89,11.836-16.136,20.466c-1.895,5.007-2.774,10.171-2.774,15.248c0,8.724,2.649,17.213,7.49,24.302
		c4.842,7.106,11.876,12.89,20.514,16.129l29.505,11.113c4.975,1.87,10.146,2.782,15.216,2.782c7.082,0,13.943-1.776,20.073-4.983
		c9.346,6.382,20.129,12.418,32.578,17.496c20.38,8.315,45.044,14.092,74.446,14.776c1.863,0.048,3.694,0.064,5.517,0.064
		c28.633,0.015,52.55-5.455,72.411-15.39c14.894-7.45,27.446-17.385,37.946-29.119c15.782-17.598,26.99-39.118,35.455-62.657
		c8.434-23.477,14.155-49.02,18.785-74.989c0.118-0.55,0.715-3.222,1.682-7.584c3.812-17.158,13.369-60.174,22.266-99.943
		c4.448-19.877,8.732-38.944,12.056-53.547c1.651-7.294,3.066-13.479,4.142-18.077c0.534-2.296,0.983-4.197,1.336-5.644
		c0.33-1.415,0.597-2.436,0.668-2.68c1.187-4.158,1.768-8.221,1.768-12.143C489.722,124.929,488.63,119.899,486.562,115.434z
		 M57.584,207.361c-5.887-2.216-10.571-6.084-13.857-10.893c-3.278-4.826-5.086-10.58-5.086-16.482
		c0-3.419,0.598-6.877,1.887-10.304c2.224-5.878,6.076-10.578,10.901-13.864c4.81-3.27,10.579-5.085,16.482-5.085
		c3.403,0,6.876,0.605,10.288,1.886l40.414,15.209v62.516L57.584,207.361z M79.23,288.252c-3.01-4.449-4.677-9.715-4.677-15.146
		c0-3.136,0.559-6.311,1.73-9.455c2.028-5.392,5.596-9.714,10.013-12.732c4.418-3.002,9.715-4.669,15.115-4.669
		c3.136,0,6.311,0.566,9.447,1.73h0.031l7.726,2.923l21.786,8.206c4.024,1.501,7.42,3.859,10.171,6.806
		c0.911,0.974,1.768,2.059,2.554,3.206c3.003,4.41,4.646,9.714,4.646,15.106c0,3.144-0.558,6.319-1.737,9.495
		c-1.273,3.403-3.144,6.334-5.462,8.818c-1.376,1.485-2.877,2.751-4.551,3.898c-4.417,3.011-9.675,4.654-15.106,4.654
		c-3.144,0-6.319-0.559-9.455-1.745l-2.845-1.085l-26.66-9.997C86.555,296.206,82.232,292.669,79.23,288.252z M88.087,366.832
		c-2.995-4.425-4.637-9.722-4.637-15.122c0-3.144,0.55-6.319,1.737-9.447c2.02-5.431,5.549-9.714,10.006-12.764
		c4.41-3.003,9.714-4.654,15.114-4.654c2.751,0,5.533,0.409,8.308,1.352c0.393,0.094,0.754,0.267,1.147,0.393l29.506,11.114
		c0.456,0.165,0.88,0.33,1.305,0.534c4.81,2.091,8.669,5.392,11.412,9.447c3.018,4.449,4.677,9.722,4.677,15.153
		c0,3.145-0.55,6.304-1.722,9.448c0,0.032-0.039,0.063-0.039,0.094c-2.028,5.376-5.596,9.66-9.974,12.638
		c-4.418,3.01-9.722,4.669-15.122,4.669c-3.136,0-6.303-0.55-9.448-1.722l-11.742-4.425l-17.763-6.712
		C95.42,374.802,91.129,371.265,88.087,366.832z M174.056,449.783c-0.102,0.361-0.228,0.754-0.353,1.116
		c-2.036,5.392-5.573,9.706-10.006,12.716c-4.425,3.011-9.683,4.692-15.114,4.692c-3.144,0-6.32-0.558-9.455-1.745l-29.513-11.121
		c-5.431-2.027-9.714-5.596-12.725-10.013c-3.01-4.41-4.676-9.699-4.676-15.106c0-3.144,0.55-6.35,1.737-9.455
		c2.028-5.423,5.588-9.754,10.006-12.756c4.283-2.923,9.424-4.55,14.658-4.645h0.456c3.136,0,6.311,0.526,9.455,1.722l1.282,0.472
		l28.216,10.634c5.431,2.051,9.723,5.596,12.764,10.014c3.01,4.44,4.653,9.706,4.653,15.145
		C175.439,444.194,175.015,447.001,174.056,449.783z M155.059,322.402l-2.35-0.888c0.849-0.488,1.674-1.014,2.507-1.556
		c7.129-4.81,12.882-11.852,16.128-20.482c1.895-5.007,2.782-10.186,2.782-15.248c0-8.756-2.649-17.197-7.498-24.302
		c-3.954-5.847-9.416-10.799-16.057-14.162V49.068h198.982v321.679H182.222c0.487-2.642,0.794-5.282,0.794-7.908
		c0-8.771-2.64-17.212-7.482-24.348C170.692,331.401,163.657,325.632,155.059,322.402z M261.196,404.322
		c0,6.32-5.132,11.46-11.452,11.46c-6.327,0-11.452-5.14-11.452-11.46c0-6.31,5.124-11.443,11.452-11.443
		C256.063,392.88,261.196,398.012,261.196,404.322z M472.218,137.89c-0.259,0.88-0.558,2.114-1.014,4
		c-1.658,6.94-5.07,21.882-9.259,40.477c-12.559,55.741-32.138,144.052-32.138,144.052l-0.039,0.172l-0.032,0.173
		c-4.04,22.73-8.905,44.824-15.547,65.039c-4.975,15.176-10.948,29.277-18.274,41.828c-11.003,18.848-24.915,34.167-43.306,44.934
		c-18.415,10.744-41.499,17.07-71.413,17.086c-1.682,0-3.395-0.031-5.14-0.063c-27.477-0.653-50.089-5.99-68.638-13.558
		c-9.534-3.906-17.983-8.402-25.473-13.164c2.932-3.577,5.36-7.656,7.058-12.214c0.856-2.248,1.509-4.575,1.933-6.869
		c0.338-1.603,0.55-3.215,0.676-4.811l172.896,1.541c9.015,0,16.356-7.325,16.356-16.348V211.928
		c2.971-10.446,6.798-23.917,11.758-41.334c6.374-22.352,16.324-37.278,26.856-46.591c10.539-9.306,21.732-13.047,30.983-13.047
		c7.057,0,12.897,2.169,16.772,5.486c1.933,1.666,3.426,3.592,4.472,5.856c1.038,2.255,1.643,4.849,1.651,7.93
		C473.358,132.514,473.02,135.06,472.218,137.89z" style="fill: rgb(75, 75, 75);"></path>
	<path class="st0" d="M236.941,233.864h19.794c11.797,0,22.6-4.826,30.314-12.575c7.73-7.703,12.564-18.518,12.556-30.307
		c0.008-11.789-4.826-22.604-12.556-30.307c-7.714-7.75-18.517-12.575-30.314-12.559h-48.742v127.074h28.947V233.864z
		 M236.941,177.07h19.794c3.89,0,7.278,1.525,9.84,4.064c2.547,2.57,4.072,5.965,4.083,9.848c-0.012,3.89-1.536,7.278-4.083,9.84
		c-2.562,2.546-5.95,4.071-9.84,4.079h-19.794V177.07z" style="fill: rgb(75, 75, 75);"></path>
</g>
</svg>
