<?xml version="1.0" encoding="utf-8"?>
<!-- Generator: Adobe Illustrator 26.2.1, SVG Export Plug-In . SVG Version: 6.00 Build 0)  -->
<svg version="1.1" id="レイヤー_1" xmlns="http://www.w3.org/2000/svg" xmlns:xlink="http://www.w3.org/1999/xlink" x="0px"
	 y="0px" viewBox="0 0 351.1 146.6" style="enable-background:new 0 0 351.1 146.6;" xml:space="preserve">
<style type="text/css">
	.st0{fill:url(#SVGID_1_);}
	.st1{fill:url(#SVGID_00000134956390601771298960000012790872585545132456_);}
	.st2{fill:url(#SVGID_00000101100688811629641520000005168276286353833123_);}
	.st3{fill:url(#SVGID_00000173866962700200799290000004163779682766257284_);}
	.st4{fill:url(#SVGID_00000012455466384987522830000004757495356889868433_);}
	.st5{fill:#FFFFFF;}
</style>
<g id="a">
</g>
<g>
	<g>
		<linearGradient id="SVGID_1_" gradientUnits="userSpaceOnUse" x1="21.1609" y1="75.4015" x2="163.3125" y2="75.4015">
			<stop  offset="0" style="stop-color:#AA73FA"/>
			<stop  offset="0.5" style="stop-color:#FB94CD"/>
			<stop  offset="1" style="stop-color:#FFC900"/>
		</linearGradient>
		<polygon class="st0" points="3.4,96.4 16.5,96.4 31.9,54.4 18.6,54.4 		"/>
		
			<linearGradient id="SVGID_00000139253922632505519300000003696565521542125452_" gradientUnits="userSpaceOnUse" x1="21.1609" y1="75.4015" x2="163.3125" y2="75.4015">
			<stop  offset="0" style="stop-color:#AA73FA"/>
			<stop  offset="0.5" style="stop-color:#FB94CD"/>
			<stop  offset="1" style="stop-color:#FFC900"/>
		</linearGradient>
		<polygon style="fill:url(#SVGID_00000139253922632505519300000003696565521542125452_);" points="51.7,54.4 67,96.4 80.4,96.4 
			65.2,54.4 		"/>
		
			<linearGradient id="SVGID_00000084519700133972833700000010819477258393001098_" gradientUnits="userSpaceOnUse" x1="24.8402" y1="60.2887" x2="166.9918" y2="60.2887">
			<stop  offset="0" style="stop-color:#AA73FA"/>
			<stop  offset="0.5" style="stop-color:#FB94CD"/>
			<stop  offset="1" style="stop-color:#FFC900"/>
		</linearGradient>
		<polygon style="fill:url(#SVGID_00000084519700133972833700000010819477258393001098_);" points="95.1,82.4 112.1,82.4 130,62.6 
			130,99.1 142.6,99.1 142.6,48.5 166.9,21.5 149.9,21.5 		"/>
		<path d="M239.2,19.2h-12.1v9.3h-43.9v11.9h43.9v7.5h-43.9v11.9h43.9v7.4h-42.2v33.1h54.3V85.2h18V73.3h-18V59.7H258V47.9h-18.8
			v-7.6H258V28.5h-18.8V19.2z M227.1,88.5h-30V79h30V88.5z"/>
		<path d="M346.6,51.1h-35.4l22.5-15.8V25.1h-56.1v11.8h32.8L290,51.1h-12.4v11.8h57.5v25.6H310v-17h-32.4v28.7h69V51.1z
			 M299.3,83.3v5.2h-11v-5.2H299.3z"/>
	</g>
	<g>
		<g>
			<path d="M185.7,115.4h8.6c3.6,0,6.3,0.7,8.3,2.1c2,1.4,2.9,3.3,2.9,5.9c0,1.6-0.5,3-1.4,4.1c-1,1.2-2.3,2.1-3.9,2.7
				c-1.7,0.6-3.5,1-5.5,1h-1.5v8.2h-7.5V115.4z M197.5,125.6c0.7-0.5,1-1.3,1-2.2s-0.3-1.7-1-2.2c-0.7-0.5-1.6-0.7-2.9-0.7h-1.5v5.9
				c0.5,0,1,0.1,1.5,0.1C195.9,126.3,196.9,126.1,197.5,125.6z"/>
			<path d="M212.4,138.5c-1.5-0.8-2.7-1.8-3.6-3.2c-0.8-1.4-1.3-2.9-1.3-4.7c0-1.8,0.4-3.3,1.3-4.7s2-2.4,3.6-3.2
				c1.5-0.7,3.3-1.1,5.2-1.1c2,0,3.7,0.4,5.2,1.1c1.5,0.8,2.7,1.8,3.5,3.2s1.3,2.9,1.3,4.7c0,1.8-0.4,3.4-1.3,4.7s-2,2.4-3.6,3.2
				c-1.5,0.8-3.3,1.1-5.2,1.1C215.7,139.6,213.9,139.3,212.4,138.5z M220.1,133.4c0.6-0.7,0.9-1.6,0.9-2.7c0-1.1-0.3-2-0.9-2.7
				c-0.6-0.7-1.4-1.1-2.4-1.1c-1,0-1.7,0.4-2.4,1.1c-0.6,0.7-0.9,1.6-0.9,2.7c0,1.1,0.3,2,0.9,2.7c0.6,0.7,1.4,1.1,2.4,1.1
				C218.7,134.4,219.4,134.1,220.1,133.4z"/>
			<path d="M232.2,118.3c-0.8-0.7-1.1-1.5-1.1-2.5c0-1,0.4-1.8,1.2-2.5c0.8-0.7,1.7-1,2.7-1c1.1,0,2,0.3,2.8,1
				c0.8,0.7,1.2,1.5,1.2,2.5c0,1-0.4,1.9-1.2,2.5c-0.8,0.7-1.7,1-2.8,1C233.9,119.3,233,119,232.2,118.3z M232.9,137.8
				c-1.1-1.3-1.6-3-1.6-5.1v-10.7h7.4v10.4c0,0.5,0.1,0.9,0.4,1.2c0.3,0.3,0.7,0.4,1.1,0.4c0.5,0,0.9-0.1,1.4-0.4l0.4,4.8
				c-0.5,0.4-1.2,0.7-2,0.9s-1.7,0.3-2.6,0.3C235.5,139.6,234,139,232.9,137.8z"/>
			<path d="M253.2,115.4h7.2l6,11.6l5.9-11.6h7.2v24h-7.2v-12.8l-4.4,8.4h-3l-4.5-8.4v12.8h-7.2V115.4z"/>
			<path d="M287.9,138.4c-1.3-0.8-2.4-1.9-3.2-3.3c-0.8-1.4-1.2-2.9-1.2-4.6c0-1.7,0.4-3.2,1.2-4.5s1.8-2.4,3.2-3.2
				c1.3-0.8,2.7-1.1,4.2-1.1c1.2,0,2.3,0.3,3.4,1c1,0.7,1.8,1.7,2.4,3v-4h7.3v17.7h-7.3v-3.2c-1.2,2.3-3.1,3.5-5.7,3.5
				C290.6,139.6,289.2,139.2,287.9,138.4z M296.8,133.1c0.7-0.7,1-1.4,1.1-2.4v-0.3c0-0.9-0.4-1.7-1.1-2.4c-0.7-0.6-1.5-1-2.4-1
				c-1,0-1.8,0.3-2.5,1c-0.7,0.7-1,1.5-1,2.5c0,1,0.3,1.8,1,2.5c0.7,0.7,1.5,1,2.5,1C295.3,134.1,296.1,133.8,296.8,133.1z"/>
			<path d="M309.7,122.2h7.3v3.6c0.5-1.4,1.3-2.4,2.2-3c0.9-0.7,2-1,3.2-1l1,5.7c-2.2,0-3.8,0.2-4.9,0.7c-1,0.5-1.5,1.2-1.5,2.2v9.1
				h-7.3V122.2z"/>
			<path d="M330.7,138.7c-1.4-0.6-2.5-1.6-3.3-2.8c-0.8-1.2-1.2-2.5-1.2-4v-10h7.2v9.9c0,0.8,0.2,1.4,0.6,1.8c0.4,0.4,1,0.6,1.6,0.6
				c0.6,0,1.1-0.2,1.5-0.6c0.4-0.4,0.6-1,0.6-1.8v-9.9h7v10c0,1.5-0.4,2.9-1.2,4.1c-0.8,1.2-1.9,2.1-3.3,2.7c-1.4,0.7-3,1-4.8,1
				C333.7,139.6,332.1,139.3,330.7,138.7z"/>
		</g>
	</g>
	<g>
		
			<linearGradient id="SVGID_00000008125930181316745590000011197542225903541650_" gradientUnits="userSpaceOnUse" x1="21.1609" y1="59.8013" x2="163.3125" y2="59.8013">
			<stop  offset="0" style="stop-color:#AA73FA"/>
			<stop  offset="0.5" style="stop-color:#FB94CD"/>
			<stop  offset="1" style="stop-color:#FFC900"/>
		</linearGradient>
		<path style="fill:url(#SVGID_00000008125930181316745590000011197542225903541650_);" d="M67.3,35.3H48.2V20.5H35.6v14.8H4.7v12.1
			h30.8v51.7h12.6V47.4H75C71.4,44.2,68.7,40,67.3,35.3z"/>
	</g>
	<g>
		<g>
			
				<linearGradient id="SVGID_00000183963467688048926610000004937932939404079000_" gradientUnits="userSpaceOnUse" x1="18.0607" y1="-20.9356" x2="279.411" y2="147.9558">
				<stop  offset="0" style="stop-color:#AA73FA"/>
				<stop  offset="0.5" style="stop-color:#FB94CD"/>
				<stop  offset="1" style="stop-color:#FFC900"/>
			</linearGradient>
			<circle style="fill:url(#SVGID_00000183963467688048926610000004937932939404079000_);" cx="93" cy="27.5" r="20.6"/>
		</g>
		<g>
			<path class="st5" d="M86.5,17.3h7.4c5,0,8.8,1.8,8.8,7.1c0,5.1-3.9,7.5-8.7,7.5h-3v8h-4.5V17.3z M93.8,28.3
				c3.1,0,4.6-1.3,4.6-3.9c0-2.6-1.6-3.5-4.7-3.5H91v7.4H93.8z"/>
		</g>
	</g>
</g>
</svg>
