<?xml version="1.0" encoding="UTF-8"?><svg xmlns="http://www.w3.org/2000/svg" xmlns:xlink="http://www.w3.org/1999/xlink" viewBox="0 0 438.16 408.28"><defs><style>.f{fill:url(#e);opacity:.5;}.g{fill:url(#d);opacity:.4;}.h{fill:#ced3d4;}.i{fill:none;}.j{fill:#e3f6fa;}</style><pattern id="d" x="0" y="0" width="300" height="300" patternTransform="translate(-2574.66 -1897.67) rotate(-45) scale(.03)" patternUnits="userSpaceOnUse" viewBox="0 0 300 300"><g><rect class="i" width="300" height="300"/><circle class="h" cx="60" cy="60" r="60"/></g></pattern><linearGradient id="e" x1="8427.32" y1="95.36" x2="8895.39" y2="297.58" gradientTransform="translate(8884.16) rotate(-180) scale(1 -1)" gradientUnits="userSpaceOnUse"><stop offset="0" stop-color="#8fd3f4"/><stop offset="1" stop-color="#84fab0"/></linearGradient></defs><g id="a"/><g id="b"><g id="c"><g><path class="g" d="M406.86,338.36c23.27-41.52,30.57-117.93-50.64-190.92C275.02,74.45,241.71,58.25,182.41,24.49,123.1-9.27,51.38-11.73,23.19,40c-27.6,50.64,5.7,101.51,54.52,166.29,48.81,64.78,68.43,173.13,158.08,195.94,88.72,22.57,147.81-22.35,171.08-63.87Z"/><path class="j" d="M354.17,259.67c-39.73,46.95-62.72,110.14-139.6,137.55-78.7,28.06-156.71-7.53-198.45-82.12-41.74-74.59,2.74-145.76,74.59-160.81,71.85-15.05,96.49-61.59,175.87-50.64,79.38,10.95,162.87,67.06,87.59,156.02Z"/><path class="f" d="M310.71,282.59c59.71-25.69,105.38-37.64,120.44-78.35,15.05-40.72,6.5-90.67-32.16-129.68-38.66-39.01-101.96-64.33-175.87-41.06C149.22,56.77,82.84,120.75,63.33,177.89c-20.04,58.71-21.56,131.05,18.13,167.32,41.85,38.24,94.48,38.76,133.44,18.48,41.4-21.56,34.56-54.75,95.8-81.09Z"/></g></g></g></svg>