<?xml version="1.0" encoding="UTF-8"?><svg xmlns="http://www.w3.org/2000/svg" viewBox="0 0 22.04 22.04"><defs><style>.d{fill:#54A0EC;}.e{fill:none;stroke:#54A0EC;stroke-linecap:round;stroke-linejoin:round;stroke-width:2px;}</style></defs><g id="a"/><g id="b"><g id="c"><g><circle class="e" cx="11.02" cy="11.02" r="10.02"/><path class="d" d="M9.04,15.84c-.49,0-.74-.25-.74-.76V7.57c0-.51,.25-.76,.76-.76h3.37c.84,0,1.51,.2,2.01,.59,.49,.4,.74,1.06,.74,2s-.25,1.61-.74,2.01c-.49,.4-1.16,.61-2.01,.61h-2.64v3.06c0,.51-.25,.76-.75,.76Zm.75-5.21h2.44c.44,0,.78-.09,1.02-.28,.24-.19,.36-.5,.36-.94s-.12-.74-.36-.93c-.24-.19-.58-.28-1.02-.28h-2.44v2.44Z"/></g></g></g></svg>